<svg version="1.1" id="Layer_1" xmlns="http://www.w3.org/2000/svg" xmlns:xlink="http://www.w3.org/1999/xlink" x="0px" y="0px"
	 width="100%" viewBox="0 0 308 323" enable-background="new 0 0 308 323" xml:space="preserve">
<path fill="#000000" opacity="1.000000" stroke="none" 
	d="
M1.000000,117.000000 
	C1.000000,78.000015 1.000000,39.500038 1.000000,1.000041 
	C103.666595,1.000028 206.333191,1.000028 308.999817,1.000014 
	C308.999878,108.666542 308.999878,216.333084 308.999939,323.999725 
	C206.333496,323.999817 103.667000,323.999817 1.000252,323.999908 
	C1.000000,255.166672 1.000000,186.333328 1.000000,117.000000 
M241.949783,246.431412 
	C241.646286,246.271408 241.342789,246.111389 241.000610,245.999481 
	C241.000610,245.999481 241.048569,245.960464 240.949432,245.431580 
	C240.646286,245.271805 240.343155,245.112015 240.000000,245.000000 
	C240.000000,245.000000 240.042801,244.954224 239.855240,244.352768 
	C239.461029,244.293900 239.066833,244.235016 238.407166,244.033783 
	C238.407166,244.033783 238.106583,244.014069 237.860733,243.440155 
	C236.939743,242.625656 236.018768,241.811172 234.806274,240.373535 
	C232.152710,237.621765 229.499146,234.870010 226.943481,231.551270 
	C226.643097,231.351379 226.342712,231.151505 225.997772,230.994843 
	C225.997772,230.994843 226.050552,230.963974 225.946777,230.434784 
	C225.643280,230.273026 225.339783,230.111267 225.001419,229.999146 
	C225.001419,229.999146 225.050522,229.963425 224.947189,229.434265 
	C224.643707,229.272766 224.340210,229.111282 224.001297,228.999252 
	C224.001297,228.999252 224.050217,228.963013 223.947037,228.434128 
	C223.643677,228.272842 223.340332,228.111557 223.001129,227.999390 
	C223.001129,227.999390 223.049713,227.962799 222.946503,227.434280 
	C222.643356,227.273102 222.340195,227.111923 222.016296,226.963394 
	C222.016296,226.963394 222.040924,226.935974 221.841599,226.295532 
	C218.249329,222.848770 214.657059,219.402008 211.039185,215.967957 
	C211.039185,215.967957 211.049835,215.964706 210.944763,215.436371 
	C210.641632,215.274490 210.338516,215.112610 210.046539,214.937912 
	C210.046539,214.937912 210.046234,214.919525 209.938629,214.418182 
	C209.650818,214.258316 209.363007,214.098465 209.030701,213.934387 
	C209.030701,213.934387 209.054092,213.972382 208.944473,213.440277 
	C208.639008,213.275864 208.333527,213.111450 208.002075,212.998093 
	C208.002075,212.998093 208.052933,212.971725 207.942917,212.440933 
	C207.638184,212.276642 207.333450,212.112335 207.001953,211.998505 
	C207.001953,211.998505 207.052002,211.970947 206.942368,211.440704 
	C206.637970,211.276596 206.333588,211.112473 206.010178,211.003494 
	C206.010178,211.003494 206.053848,210.964630 205.957504,210.462921 
	C205.667343,210.351532 205.377167,210.240128 204.433441,209.878769 
	C203.020569,208.204224 201.607697,206.529694 199.949692,204.564636 
	C204.715652,203.989029 208.609451,203.593994 212.480331,203.039001 
	C237.238342,199.489227 256.585938,187.349655 270.123291,166.276917 
	C273.686859,160.729721 276.648346,154.795731 280.223511,148.357590 
	C281.779999,142.584091 283.336456,136.810593 285.049194,130.221161 
	C285.334564,127.484337 285.619965,124.747505 286.018829,121.136002 
	C285.975464,119.077362 285.932098,117.018730 286.011017,114.078934 
	C285.671082,110.839882 285.747742,107.488220 284.908661,104.384087 
	C282.858582,96.800056 280.384949,89.330513 278.028259,81.402832 
	C278.028259,81.402832 277.895355,81.009148 277.792908,80.325798 
	C276.922302,78.825859 276.051697,77.325912 275.096252,75.106659 
	C272.457947,71.378738 269.819611,67.650818 266.901215,63.301212 
	C265.003235,61.196674 263.105286,59.092133 260.922455,56.358063 
	C257.985748,53.842316 255.049072,51.326565 251.786301,48.178188 
	C248.870605,46.414127 245.954910,44.650066 242.715500,42.309071 
	C241.196228,41.516293 239.676941,40.723518 237.813416,39.265511 
	C236.264938,38.559753 234.769287,37.678066 233.154465,37.193344 
	C231.191788,36.604195 229.128647,36.349644 226.780838,35.347813 
	C221.898575,34.212387 217.016312,33.076962 211.775635,31.284857 
	C209.209076,31.185722 206.642532,31.086586 203.625839,30.232222 
	C161.699158,30.140312 119.772491,30.043800 77.845764,30.004492 
	C77.272827,30.003954 76.699226,30.724886 75.782776,31.741640 
	C74.369781,32.457664 72.767578,32.944481 71.575729,33.928383 
	C65.611504,38.851986 59.754829,43.905865 53.307949,49.183914 
	C52.514668,50.099968 51.721386,51.016022 51.000484,51.994160 
	C51.000484,51.994160 50.937489,51.921818 50.273872,51.992130 
	C49.157162,52.970577 48.040451,53.949024 47.001183,54.992619 
	C47.001183,54.992619 46.932686,54.917091 46.228149,54.985577 
	C44.417740,56.331593 42.556599,57.615013 40.805458,59.034164 
	C31.841022,66.299072 22.904934,73.598961 13.322295,80.980965 
	C12.834895,81.316063 12.347495,81.651169 11.431243,82.091515 
	C11.153985,82.256454 11.007235,82.500023 10.269049,82.952530 
	C9.165604,83.908257 8.062160,84.863983 6.297165,86.261559 
	C7.170432,86.508575 8.043446,86.970551 8.917001,86.971581 
	C41.853241,87.010368 74.789551,87.017471 107.725746,86.964073 
	C108.878166,86.962212 110.029526,86.301353 111.592812,86.005348 
	C111.592812,86.005348 111.981094,85.857552 112.726807,85.973785 
	C114.130966,86.353920 115.535133,86.734062 116.998833,88.035522 
	C117.001747,124.880516 116.993156,161.725525 117.049065,198.570450 
	C117.051331,200.066833 117.661949,201.562317 117.996628,203.546677 
	C117.996628,203.546677 118.123634,204.018402 118.123863,204.531967 
	C118.390709,204.732559 118.657547,204.933136 119.211670,205.726028 
	C121.448433,207.871063 123.685188,210.016098 126.223366,212.746902 
	C129.099884,215.527191 131.976410,218.307480 135.162338,221.681320 
	C138.381088,224.838104 141.599823,227.994888 144.880127,231.862656 
	C148.896881,235.960602 152.869720,240.103012 156.953049,244.133499 
	C158.479294,245.639984 160.263107,246.885513 162.090897,248.629105 
	C162.257721,248.864227 162.480988,249.016724 162.852921,249.803360 
	C163.872833,250.616302 164.892746,251.429245 166.160141,252.714401 
	C166.695663,253.171646 167.231171,253.628891 167.866867,254.798859 
	C168.548660,255.277542 169.230453,255.756226 170.247208,256.803680 
	C171.430511,257.939972 172.613815,259.076263 173.888168,260.932770 
	C174.876175,261.918304 175.841507,262.927887 176.856323,263.884979 
	C180.145950,266.987488 183.453720,270.070740 186.794250,273.211823 
	C186.794250,273.211823 186.856430,273.195831 186.875748,273.887421 
	C187.857452,274.634491 188.839157,275.381561 189.854156,276.103271 
	C189.854156,276.103271 189.868576,276.142548 189.877182,276.861420 
	C190.903152,277.670166 191.929138,278.478912 193.285034,279.843689 
	C195.192520,282.066742 196.951370,284.443176 199.045959,286.473145 
	C201.529282,288.879822 204.301834,290.988037 207.218170,293.771362 
	C208.402359,294.865845 209.586548,295.960327 211.055832,297.612549 
	C211.722885,298.033112 212.389954,298.453674 213.604507,299.131500 
	C214.412262,300.017731 215.220001,300.903931 215.353806,302.217010 
	C215.538696,302.462128 215.718872,302.917908 215.909164,302.922180 
	C226.597244,303.161316 237.285660,303.478760 247.975204,303.526520 
	C254.916916,303.557556 261.862915,302.975342 268.802399,303.057465 
	C276.702271,303.150909 284.595215,303.787659 292.495605,303.916168 
	C293.933868,303.939545 295.393311,302.656738 296.992493,301.268524 
	C296.710449,300.704712 296.553772,300.012878 296.127991,299.595825 
	C286.195251,289.867188 276.295471,280.103363 266.245819,270.496460 
	C262.309326,266.733368 258.024750,263.334381 253.936996,259.584381 
	C253.936996,259.584381 253.815872,259.439148 253.942566,258.782715 
	C253.642624,258.507965 253.342667,258.233215 253.001221,258.000153 
	C253.001221,258.000153 253.046570,257.961243 252.951447,257.430359 
	C252.647324,257.271698 252.343185,257.113007 252.000610,257.000000 
	C252.000610,257.000000 252.045502,256.960510 251.951096,256.430206 
	C251.647339,256.271942 251.343567,256.113708 251.000000,256.000000 
	C251.000000,256.000000 251.044449,255.959961 250.950760,255.430054 
	C250.647263,255.272141 250.343750,255.114243 250.000000,255.000000 
	C250.000000,255.000000 250.043594,254.959534 249.950439,254.429993 
	C249.647171,254.272354 249.343887,254.114700 249.000000,254.000000 
	C249.000000,254.000000 249.042877,253.959198 248.950302,253.429886 
	C248.647202,253.272446 248.344116,253.115005 248.000000,253.000000 
	C248.000000,253.000000 248.042328,252.958679 247.950363,252.429642 
	C247.647461,252.272446 247.344559,252.115234 247.000809,251.988785 
	C247.000809,251.988785 247.034332,251.947266 246.872818,251.322479 
	C245.600937,250.201355 244.329071,249.080231 243.010941,247.995483 
	C243.010941,247.995483 243.050232,247.960968 242.950577,247.430908 
	C242.646698,247.270782 242.342819,247.110657 242.000656,246.999390 
	C242.000656,246.999390 242.049393,246.960846 241.949783,246.431412 
M131.910812,247.463470 
	C131.616501,247.287628 131.322174,247.111801 131.067139,246.977036 
	C131.067139,246.977036 131.071884,246.919556 130.813126,246.323975 
	C129.242050,244.851669 127.670959,243.379349 125.906044,241.426254 
	C125.612625,241.258713 125.319206,241.091171 125.014931,240.986237 
	C125.014931,240.986237 125.076088,240.968979 124.916016,240.459946 
	C124.620255,240.281281 124.324501,240.102615 124.014481,239.985809 
	C124.014481,239.985809 124.075691,239.968964 123.915741,239.460220 
	C123.620148,239.281693 123.324554,239.103165 123.014046,238.986237 
	C123.014046,238.986237 123.074989,238.968781 122.915062,238.460724 
	C122.619865,238.282379 122.324669,238.104019 122.013397,237.986832 
	C122.013397,237.986832 122.073891,237.968338 121.913780,237.461456 
	C121.619240,237.283295 121.324699,237.105148 121.012589,236.987671 
	C121.012589,236.987671 121.072510,236.967697 120.912056,236.462402 
	C120.618378,236.284485 120.324699,236.106567 120.011559,235.988708 
	C120.011559,235.988708 120.070801,235.966827 119.910149,235.463120 
	C119.617348,235.285477 119.324547,235.107849 119.010643,234.989792 
	C119.010643,234.989792 119.069229,234.966064 118.909119,234.463165 
	C118.616806,234.285873 118.324486,234.108582 118.009979,233.990555 
	C118.009979,233.990555 118.068153,233.965668 117.908890,233.462875 
	C117.616699,233.285919 117.324516,233.108948 117.063057,232.960541 
	C117.063057,232.960541 117.054398,232.916946 116.815964,232.332138 
	C115.581337,231.194000 114.346718,230.055847 112.908852,228.434082 
	C112.612617,228.263229 112.316376,228.092377 112.014572,227.986359 
	C112.014572,227.986359 112.078545,227.974518 111.913879,227.464294 
	C111.617142,227.283478 111.320404,227.102661 111.014404,226.985611 
	C111.014404,226.985611 111.077805,226.974136 110.912643,226.464996 
	C110.616463,226.284271 110.320282,226.103546 110.013954,225.986038 
	C110.013954,225.986038 110.076775,225.973663 109.911057,225.465683 
	C109.615471,225.285034 109.319885,225.104401 109.013481,224.986603 
	C109.013481,224.986603 109.075859,224.973434 108.910378,224.465775 
	C108.614960,224.285324 108.319542,224.104874 108.013092,223.987061 
	C108.013092,223.987061 108.075226,223.973557 107.910614,223.465454 
	C107.614983,223.285278 107.319359,223.105103 107.012772,222.987488 
	C107.012772,222.987488 107.074837,222.973999 106.911430,222.464981 
	C106.615379,222.285065 106.319328,222.105148 106.046738,221.986191 
	C106.046738,221.986191 106.064804,221.923416 105.804138,221.315964 
	C103.572815,219.182648 101.341499,217.049316 98.908318,214.432922 
	C98.613091,214.261230 98.317863,214.089539 98.017715,213.983261 
	C98.017715,213.983261 98.082245,213.971451 97.915161,213.462112 
	C97.618645,213.280670 97.322128,213.099228 97.017639,212.982529 
	C97.017639,212.982529 97.081963,212.971649 96.915352,212.462036 
	C96.618706,212.280746 96.322052,212.099457 96.017372,211.982849 
	C96.017372,211.982849 96.081612,211.971878 95.915733,211.461823 
	C95.618889,211.280777 95.322052,211.099716 95.017021,210.983246 
	C95.017021,210.983246 95.081139,210.972153 94.916161,210.461609 
	C94.619118,210.280807 94.322075,210.100006 94.059372,209.973969 
	C94.059372,209.973969 94.072395,209.910645 93.814629,209.317017 
	C92.233131,207.854477 90.651634,206.391922 88.892349,204.491150 
	C88.690598,204.169296 88.413567,204.079605 87.502800,204.092300 
	C87.314499,204.059601 87.126205,204.026886 86.827103,203.585709 
	C86.571907,203.721817 86.316719,203.857925 85.471481,204.105423 
	C85.279716,204.162750 85.087944,204.220093 84.074654,204.137634 
	C70.084618,204.175461 56.094585,204.213287 41.543419,204.091904 
	C41.353470,204.050400 41.163525,204.008896 40.853706,203.536270 
	C40.577278,203.679764 40.300854,203.823242 39.450409,204.087402 
	C39.262096,204.139984 39.073780,204.192581 37.981857,204.091858 
	C31.369583,204.139069 24.757309,204.186279 17.571033,204.074142 
	C17.377066,204.031631 17.183096,203.989136 16.859795,203.516541 
	C16.576275,203.659470 16.292757,203.802399 15.437474,204.070099 
	C15.249539,204.122391 15.061604,204.174667 14.137374,204.078384 
	C13.140745,204.128601 12.144116,204.178802 10.403765,204.088699 
	C9.395971,204.088699 8.388178,204.088699 5.878381,204.088699 
	C13.648208,211.148849 20.285412,217.179825 27.230997,223.765991 
	C28.509558,225.176544 29.788116,226.587112 31.072447,228.625015 
	C31.679951,229.193069 32.287453,229.761124 33.198311,230.893112 
	C35.365959,232.965652 37.533611,235.038193 40.014923,237.647842 
	C40.677376,238.074600 41.339828,238.501358 42.634850,239.218292 
	C46.355255,242.848328 50.075661,246.478363 53.880871,250.830978 
	C57.854679,254.592957 61.828487,258.354950 65.884727,262.840210 
	C70.842590,267.611542 75.800453,272.382874 80.787239,277.165710 
	C80.787239,277.165710 80.810524,277.182526 80.870430,277.847992 
	C81.591423,278.547882 82.312416,279.247772 83.663673,280.238190 
	C88.803459,285.732971 93.927864,291.242401 99.115425,296.691711 
	C99.486885,297.081909 100.320663,297.031952 101.196083,297.729858 
	C102.088585,298.521179 102.981079,299.312531 104.095085,300.611359 
	C104.457207,301.029480 104.819328,301.447571 105.336121,302.749695 
	C112.387802,303.166412 119.434837,303.789642 126.492325,303.948761 
	C135.766388,304.157898 145.050644,304.115967 154.326675,303.957855 
	C159.558197,303.868683 164.780899,303.090729 170.009659,303.066162 
	C174.409882,303.045502 178.809158,303.851501 183.216217,303.945038 
	C187.018143,304.025726 187.126968,303.570099 184.747406,299.350037 
	C181.861908,296.910217 178.976410,294.470398 175.903168,291.508606 
	C175.596420,291.322815 175.289673,291.137024 174.986755,291.014374 
	C174.986755,291.014374 175.048218,290.999390 175.006836,290.285156 
	C172.676895,288.183685 170.346970,286.082245 167.880463,283.482941 
	C167.592529,283.315430 167.304581,283.147919 166.880402,282.482605 
	C166.592392,282.315308 166.304367,282.148041 165.881927,281.483002 
	C165.594238,281.316437 165.306564,281.149902 164.880600,280.484802 
	C164.592484,280.316772 164.304367,280.148773 163.879440,279.483307 
	C163.591537,279.316010 163.303635,279.148682 162.878876,278.483856 
	C162.590912,278.316620 162.302963,278.149353 161.878220,277.484436 
	C161.590118,277.317383 161.302032,277.150299 160.877945,276.485138 
	C160.592651,276.311096 160.307358,276.137024 159.993942,276.003082 
	C159.993942,276.003082 160.042923,276.001221 159.881119,275.495422 
	C159.587158,275.316772 159.293213,275.138092 158.988800,275.011200 
	C158.988800,275.011200 159.040421,274.999847 158.879913,274.495483 
	C158.586853,274.317657 158.293777,274.139862 158.000366,274.008148 
	C158.000366,274.008148 158.036392,273.979401 157.997726,273.264069 
	C156.672379,272.167358 155.347046,271.070648 153.995026,269.993713 
	C153.995026,269.993713 154.027039,269.992737 153.873489,269.495483 
	C153.584991,269.321930 153.296478,269.148376 152.996414,269.003662 
	C152.996414,269.003662 153.024979,268.991455 152.872467,268.495605 
	C152.584793,268.322784 152.297104,268.149994 152.005859,268.001221 
	C152.005859,268.001221 152.021027,267.977753 151.871857,267.491150 
	C151.591309,267.318329 151.310760,267.145538 151.003281,266.994293 
	C151.003281,266.994293 151.026001,266.978363 150.870224,266.492767 
	C150.588043,266.321228 150.305847,266.149689 150.004257,265.981018 
	C150.004257,265.981018 150.018646,265.960968 149.983032,265.250458 
	C149.002914,264.495605 148.022797,263.740753 147.054916,263.007782 
	C147.054916,263.007782 147.070236,262.984833 146.916565,262.469452 
	C146.628433,262.270691 146.340317,262.071960 145.992966,261.498718 
	C145.992966,261.498718 145.914047,261.127930 146.010757,260.534912 
	C145.694000,260.337189 145.377258,260.139496 145.109497,259.910492 
	C145.109497,259.910492 145.075104,259.863647 144.878632,259.226959 
	C143.274811,258.129517 141.670975,257.032104 140.006302,255.965607 
	C140.006302,255.965607 140.074173,255.972656 139.909271,255.466125 
	C139.614578,255.286041 139.319901,255.105972 139.012222,254.987610 
	C139.012222,254.987610 139.073456,254.972565 138.908936,254.466171 
	C138.614334,254.286285 138.319748,254.106400 138.011948,253.988022 
	C138.011948,253.988022 138.072968,253.972641 137.909470,253.465805 
	C137.614685,253.286301 137.319901,253.106796 137.011612,252.988586 
	C137.011612,252.988586 137.072311,252.972641 136.910355,252.465378 
	C136.615387,252.286530 136.320419,252.107681 136.010849,251.989517 
	C136.010849,251.989517 136.070862,251.972397 135.910995,251.464767 
	C135.615997,251.286728 135.320999,251.108688 135.009979,250.990540 
	C135.009979,250.990540 135.069107,250.971924 134.911362,250.464188 
	C134.616455,250.286926 134.321564,250.109665 134.009003,249.991501 
	C134.009003,249.991501 134.067322,249.971451 133.911285,249.463760 
	C133.616562,249.287079 133.321854,249.110397 133.008286,248.992188 
	C133.008286,248.992188 133.065994,248.971085 132.911118,248.463531 
	C132.616577,248.287323 132.322052,248.111115 132.007645,247.992844 
	C132.007645,247.992844 132.064774,247.970779 131.910812,247.463470 
z"/>
<path fill="#515FA6" opacity="1.000000" stroke="none" 
	d="
M134.852921,221.087769 
	C131.976410,218.307480 129.099884,215.527191 126.227341,212.138306 
	C128.112778,209.725998 129.791412,207.621658 131.920609,206.185089 
	C135.630188,203.682220 139.679840,201.690460 143.477631,199.310043 
	C160.347153,188.736435 177.134308,178.030945 194.035873,167.509064 
	C208.530029,158.485901 223.184509,149.720413 237.683456,140.704849 
	C250.371307,132.815430 262.882721,124.641083 275.614624,116.824768 
	C278.062164,115.322166 281.170929,114.896629 283.999603,114.225716 
	C284.036041,114.645096 284.047516,114.812965 284.042877,115.394592 
	C284.652954,117.875801 285.279144,119.943245 285.905334,122.010681 
	C285.619965,124.747505 285.334564,127.484337 284.642456,130.748230 
	C281.036804,132.604416 277.596893,133.540146 274.679077,135.327957 
	C258.550995,145.209915 242.544922,155.291168 226.507202,165.320389 
	C210.757294,175.169571 195.008804,185.021118 179.280838,194.905273 
	C171.008591,200.103943 162.891617,205.559509 154.498322,210.552460 
	C148.118484,214.347687 141.413330,217.596069 134.852921,221.087769 
z"/>
<path fill="#4A65AA" opacity="1.000000" stroke="none" 
	d="
M135.007629,221.384552 
	C141.413330,217.596069 148.118484,214.347687 154.498322,210.552460 
	C162.891617,205.559509 171.008591,200.103943 179.280838,194.905273 
	C195.008804,185.021118 210.757294,175.169571 226.507202,165.320389 
	C242.544922,155.291168 258.550995,145.209915 274.679077,135.327957 
	C277.596893,133.540146 281.036804,132.604416 284.564331,131.156189 
	C283.336456,136.810593 281.779999,142.584091 279.743103,148.815826 
	C276.396912,153.705307 273.520081,158.077072 267.305908,157.987122 
	C266.601532,157.976913 265.873566,158.772461 265.176239,159.224747 
	C256.534393,164.829742 248.013153,170.632065 239.224106,175.995651 
	C230.449432,181.350479 221.256653,186.023315 212.513809,191.426590 
	C193.737137,203.031021 175.216599,215.051514 156.379776,226.555481 
	C152.936050,228.658615 149.808960,232.554108 144.818573,231.151672 
	C141.599823,227.994888 138.381088,224.838104 135.007629,221.384552 
z"/>
<path fill="#5859A1" opacity="1.000000" stroke="none" 
	d="
M283.974670,113.974213 
	C281.170929,114.896629 278.062164,115.322166 275.614624,116.824768 
	C262.882721,124.641083 250.371307,132.815430 237.683456,140.704849 
	C223.184509,149.720413 208.530029,158.485901 194.035873,167.509064 
	C177.134308,178.030945 160.347153,188.736435 143.477631,199.310043 
	C139.679840,201.690460 135.630188,203.682220 131.920609,206.185089 
	C129.791412,207.621658 128.112778,209.725998 126.076630,211.845428 
	C123.685188,210.016098 121.448433,207.871063 118.953514,205.231445 
	C118.538437,204.470596 118.347862,204.231110 118.123634,204.018402 
	C118.123634,204.018402 117.996628,203.546677 118.028862,203.007355 
	C118.102013,202.274139 118.142937,202.080215 118.339600,201.678314 
	C118.662643,200.976562 118.829948,200.482788 119.331833,199.909882 
	C126.599945,195.310608 133.440048,190.638733 140.485168,186.299805 
	C158.868835,174.977661 177.359467,163.829163 195.735886,152.495407 
	C196.800522,151.838776 197.228638,150.150055 197.978958,148.963806 
	C198.004944,148.985992 197.944351,148.957596 198.227127,148.965134 
	C198.698486,148.970963 198.887054,148.969254 199.299225,148.975281 
	C199.522812,148.983032 199.966782,148.927383 200.241806,149.127991 
	C202.011520,148.948044 203.506195,148.567505 205.217896,148.114014 
	C205.434921,148.041061 205.883453,147.948822 206.221252,147.936417 
	C207.370560,147.585190 208.182083,147.246368 208.990082,146.940247 
	C208.986557,146.972931 208.925766,146.947830 209.212784,146.888733 
	C209.993469,146.528366 210.487122,146.227097 210.986511,145.957932 
	C210.992233,145.990036 210.943268,145.946945 211.229584,145.886414 
	C212.006393,145.519226 212.496857,145.212540 212.983978,144.938507 
	C212.980621,144.971146 212.922531,144.940613 213.207855,144.880341 
	C213.975189,144.512497 214.457214,144.204941 215.026642,143.676346 
	C215.302368,143.175674 215.562668,143.007492 216.184845,142.889084 
	C216.965332,142.513412 217.455933,142.199387 218.060883,141.631012 
	C218.730194,140.890930 219.285187,140.405212 220.142334,139.835800 
	C220.913193,139.118088 221.381866,138.484085 221.925812,137.920135 
	C222.001053,137.990173 221.853302,137.844727 222.201263,137.793488 
	C223.345703,136.468079 224.142197,135.193909 224.948822,133.938049 
	C224.958969,133.956345 224.923981,133.924805 225.247437,133.828247 
	C228.308075,130.715027 230.593567,127.037849 233.864166,124.801147 
	C245.306747,116.975800 256.969208,109.450386 268.809906,102.240906 
	C272.770813,99.829239 277.516418,98.706421 282.009003,97.388840 
	C282.734650,103.180214 283.354675,108.577217 283.974670,113.974213 
z"/>
<path fill="#436CAE" opacity="1.000000" stroke="none" 
	d="
M144.849350,231.507172 
	C149.808960,232.554108 152.936050,228.658615 156.379776,226.555481 
	C175.216599,215.051514 193.737137,203.031021 212.513809,191.426590 
	C221.256653,186.023315 230.449432,181.350479 239.224106,175.995651 
	C248.013153,170.632065 256.534393,164.829742 265.176239,159.224747 
	C265.873566,158.772461 266.601532,157.976913 267.305908,157.987122 
	C273.520081,158.077072 276.396912,153.705307 279.574463,149.156708 
	C276.648346,154.795731 273.686859,160.729721 270.123291,166.276917 
	C256.585938,187.349655 237.238342,199.489227 212.480331,203.039001 
	C208.609451,203.593994 204.715652,203.989029 199.949692,204.564636 
	C201.607697,206.529694 203.020569,208.204224 204.894348,210.170868 
	C205.576263,210.646713 205.809128,210.813934 206.053848,210.964630 
	C206.053848,210.964630 206.010178,211.003494 206.173401,211.162689 
	C206.554001,211.561462 206.792450,211.777817 207.052002,211.970947 
	C207.052002,211.970947 207.001953,211.998505 207.169144,212.160339 
	C207.553986,212.562119 207.792862,212.778625 208.052933,212.971725 
	C208.052933,212.971725 208.002075,212.998093 208.168640,213.160431 
	C208.552994,213.563461 208.792633,213.779999 209.054092,213.972382 
	C209.054092,213.972382 209.030701,213.934387 209.072433,214.231842 
	C209.146210,214.723984 209.178268,214.918671 209.019226,215.413864 
	C206.449295,216.768341 203.929016,217.586716 201.715271,218.915695 
	C189.947739,225.980026 178.295731,233.237122 166.513992,240.277267 
	C163.356476,242.164017 161.467926,244.445007 161.929474,248.250031 
	C160.263107,246.885513 158.479294,245.639984 156.953049,244.133499 
	C152.869720,240.103012 148.896881,235.960602 144.849350,231.507172 
z"/>
<path fill="#A75BA0" opacity="1.000000" stroke="none" 
	d="
M204.075974,30.987450 
	C206.642532,31.086586 209.209076,31.185722 211.632477,31.760651 
	C209.523087,34.550034 207.979080,37.538746 205.525558,39.073238 
	C179.700897,55.224575 153.762283,71.195061 127.752068,87.046333 
	C125.188675,88.608513 121.940598,89.047180 118.990967,89.692459 
	C118.711029,88.592041 118.450447,87.806465 118.031525,86.840233 
	C117.667618,86.389862 117.396851,86.231926 116.801575,85.954590 
	C115.021858,85.768135 113.501472,85.812843 111.981094,85.857552 
	C111.981094,85.857552 111.592812,86.005348 110.966827,85.933624 
	C109.223793,85.787605 108.106743,85.713310 107.045181,85.310890 
	C107.814049,84.125191 108.363899,83.000473 109.264694,82.449066 
	C132.294601,68.351746 155.447601,54.452366 178.332352,40.124306 
	C181.949860,37.859394 187.460251,36.897263 188.444901,31.042000 
	C193.967468,31.012777 199.021713,31.000114 204.075974,30.987450 
z"/>
<path fill="#0186C2" opacity="1.000000" stroke="none" 
	d="
M216.027756,301.790161 
	C215.220001,300.903931 214.412262,300.017731 213.201660,298.718689 
	C212.122772,297.888855 211.446762,297.471832 210.770737,297.054810 
	C209.586548,295.960327 208.402359,294.865845 207.034637,293.142517 
	C204.561188,289.499176 202.412827,286.361725 199.935974,283.509552 
	C198.000610,281.280884 198.313110,279.733978 200.635910,278.273376 
	C204.849380,275.623871 209.068726,272.983704 213.285004,270.338623 
	C223.242249,264.091980 233.199112,257.844727 243.536346,251.696564 
	C244.955811,251.846039 245.995071,251.896652 247.034332,251.947266 
	C247.034332,251.947266 247.000809,251.988785 247.058167,252.243881 
	C247.424454,252.652206 247.733398,252.805435 248.042328,252.958679 
	C248.042328,252.958679 248.000000,253.000000 248.058868,253.248657 
	C248.426132,253.651276 248.734497,253.805237 249.042877,253.959198 
	C249.042877,253.959198 249.000000,254.000000 249.059265,254.248337 
	C249.426895,254.650955 249.735245,254.805252 250.043594,254.959534 
	C250.043594,254.959534 250.000000,255.000000 250.059738,255.247894 
	C250.427795,255.650528 250.736130,255.805252 251.044449,255.959961 
	C251.044449,255.959961 251.000000,256.000000 251.060349,256.247375 
	C251.428970,256.649994 251.737228,256.805237 252.045502,256.960510 
	C252.045502,256.960510 252.000610,257.000000 252.062164,257.246094 
	C252.431335,257.648560 252.738953,257.804901 253.046570,257.961243 
	C253.046570,257.961243 253.001221,258.000153 253.040085,258.271423 
	C253.324585,258.841492 253.570236,259.140320 253.815872,259.439148 
	C253.815872,259.439148 253.936996,259.584381 254.001694,260.033264 
	C257.059418,263.991180 260.052429,267.500214 262.653381,271.014648 
	C260.270905,271.727661 258.089874,272.120850 256.320953,273.193634 
	C244.441711,280.397919 232.711578,287.849640 220.784729,294.972687 
	C217.965912,296.656189 216.661133,298.585876 216.751221,301.791382 
	C216.512817,301.843292 216.027756,301.790161 216.027756,301.790161 
z"/>
<path fill="#9559A0" opacity="1.000000" stroke="none" 
	d="
M118.189865,87.020897 
	C118.450447,87.806465 118.711029,88.592041 118.986526,90.148163 
	C119.000359,92.415161 118.985512,93.911728 119.000587,95.408005 
	C119.071075,102.403633 120.441917,103.331451 126.504417,99.715851 
	C139.742401,91.820900 152.849319,83.705803 165.992584,75.652542 
	C182.682678,65.426048 199.418045,55.270878 215.991043,44.857609 
	C219.985565,42.347744 223.418045,38.943363 227.108978,35.950348 
	C229.128647,36.349644 231.191788,36.604195 233.154465,37.193344 
	C234.769287,37.678066 236.264938,38.559753 237.666092,39.728119 
	C235.360245,42.214676 233.453659,44.635948 230.998779,46.192509 
	C221.321869,52.328342 211.447189,58.151165 201.693802,64.167824 
	C188.979019,72.011292 176.322189,79.948639 163.617355,87.808281 
	C151.041428,95.588158 138.732834,103.878563 125.701187,110.805321 
	C120.381966,113.632668 117.968590,116.276901 119.008286,122.452789 
	C118.998672,126.267372 118.992844,129.623978 118.793594,132.988007 
	C118.600159,132.995438 118.212753,132.999191 118.146530,132.534790 
	C118.116829,117.053902 118.153351,102.037399 118.189865,87.020897 
z"/>
<path fill="#88579F" opacity="1.000000" stroke="none" 
	d="
M118.987015,132.980591 
	C118.992844,129.623978 118.998672,126.267372 119.410034,122.451996 
	C122.319267,121.243881 125.111176,120.971878 127.277542,119.663834 
	C137.487564,113.499069 147.495972,107.001740 157.631744,100.712402 
	C184.431091,84.083168 211.316147,67.590393 237.978226,50.744377 
	C240.366745,49.235218 241.384735,45.556915 243.039215,42.886005 
	C245.954910,44.650066 248.870605,46.414127 251.855164,48.838692 
	C250.507996,51.070816 249.349152,53.038750 247.635086,54.151093 
	C234.408295,62.734676 221.028992,71.083443 207.812347,79.682350 
	C205.279602,81.330185 203.255859,83.760391 200.540894,85.894958 
	C196.392151,85.996796 192.699814,86.033325 188.681656,86.225296 
	C187.894882,88.582756 187.433929,90.784798 186.627289,93.064346 
	C185.229599,93.621109 184.109055,93.990242 183.135803,94.596031 
	C167.260742,104.477325 151.461639,114.482292 135.511353,124.240242 
	C130.203766,127.487274 124.519203,130.118118 119.001968,133.018524 
	C118.996964,133.006409 118.987015,132.980591 118.987015,132.980591 
z"/>
<path fill="#9D5AA0" opacity="1.000000" stroke="none" 
	d="
M226.944916,35.649078 
	C223.418045,38.943363 219.985565,42.347744 215.991043,44.857609 
	C199.418045,55.270878 182.682678,65.426048 165.992584,75.652542 
	C152.849319,83.705803 139.742401,91.820900 126.504417,99.715851 
	C120.441917,103.331451 119.071075,102.403633 119.000587,95.408005 
	C118.985512,93.911728 119.000359,92.415161 119.005875,90.463020 
	C121.940598,89.047180 125.188675,88.608513 127.752068,87.046333 
	C153.762283,71.195061 179.700897,55.224575 205.525558,39.073238 
	C207.979080,37.538746 209.523087,34.550034 211.811691,32.088993 
	C217.016312,33.076962 221.898575,34.212387 226.944916,35.649078 
z"/>
<path fill="#8E58A0" opacity="1.000000" stroke="none" 
	d="
M242.877365,42.597538 
	C241.384735,45.556915 240.366745,49.235218 237.978226,50.744377 
	C211.316147,67.590393 184.431091,84.083168 157.631744,100.712402 
	C147.495972,107.001740 137.487564,113.499069 127.277542,119.663834 
	C125.111176,120.971878 122.319267,121.243881 119.413818,121.994019 
	C117.968590,116.276901 120.381966,113.632668 125.701187,110.805321 
	C138.732834,103.878563 151.041428,95.588158 163.617355,87.808281 
	C176.322189,79.948639 188.979019,72.011292 201.693802,64.167824 
	C211.447189,58.151165 221.321869,52.328342 230.998779,46.192509 
	C233.453659,44.635948 235.360245,42.214676 237.838226,40.060738 
	C239.676941,40.723518 241.196228,41.516293 242.877365,42.597538 
z"/>
<path fill="#4C66A9" opacity="1.000000" stroke="none" 
	d="
M80.758316,277.154205 
	C75.800453,272.382874 70.842590,267.611542 66.160126,262.316956 
	C76.253082,255.670868 85.930954,249.307007 95.936722,243.509018 
	C102.738098,239.567871 109.998985,236.419708 117.054398,232.916946 
	C117.054398,232.916946 117.063057,232.960541 117.198784,233.139496 
	C117.552376,233.564438 117.796921,233.780182 118.068153,233.965668 
	C118.068153,233.965668 118.009979,233.990555 118.172424,234.154297 
	C118.553078,234.564163 118.797859,234.780182 119.069229,234.966064 
	C119.069229,234.966064 119.010643,234.989792 119.173027,235.153549 
	C119.554161,235.563690 119.799286,235.780197 120.070801,235.966827 
	C120.070801,235.966827 120.011559,235.988708 120.173782,236.152405 
	C120.555397,236.562805 120.800903,236.780014 121.072510,236.967697 
	C121.072510,236.967697 121.012589,236.987671 121.174530,237.151184 
	C121.556473,237.561676 121.802284,237.779556 122.073891,237.968338 
	C122.073891,237.968338 122.013397,237.986832 122.175133,238.150177 
	C122.557343,238.560745 122.803383,238.779160 123.074989,238.968781 
	C123.074989,238.968781 123.014046,238.986237 123.175613,239.149384 
	C123.557961,239.559906 123.804131,239.778717 124.075691,239.968964 
	C124.075691,239.968964 124.014481,239.985809 124.175949,240.148834 
	C124.558365,240.559296 124.804596,240.778336 125.076088,240.968979 
	C125.076088,240.968979 125.014931,240.986237 125.177986,241.142838 
	C125.563843,241.539627 125.816788,241.742172 126.099876,241.907043 
	C127.670959,243.379349 129.242050,244.851669 130.569275,246.618042 
	C127.446594,247.354141 124.082939,246.987000 121.769630,248.372971 
	C109.221817,255.890839 96.877205,263.755463 84.619751,271.741852 
	C82.891014,272.868195 82.024124,275.317352 80.758316,277.154205 
z"/>
<path fill="#436CAE" opacity="1.000000" stroke="none" 
	d="
M80.772774,277.159973 
	C82.024124,275.317352 82.891014,272.868195 84.619751,271.741852 
	C96.877205,263.755463 109.221817,255.890839 121.769630,248.372971 
	C124.082939,246.987000 127.446594,247.354141 130.698669,246.915833 
	C131.071884,246.919556 131.067139,246.977036 131.197388,247.151199 
	C131.545181,247.572693 131.790894,247.787827 132.064774,247.970779 
	C132.064774,247.970779 132.007645,247.992844 132.167877,248.158661 
	C132.546051,248.572021 132.792007,248.787552 133.065994,248.971085 
	C133.065994,248.971085 133.008286,248.992188 133.168457,249.157867 
	C133.546951,249.571304 133.793198,249.787277 134.067322,249.971451 
	C134.067322,249.971451 134.009003,249.991501 134.169098,250.157043 
	C134.548065,250.570663 134.794708,250.787094 135.069107,250.971924 
	C135.069107,250.971924 135.009979,250.990540 135.169769,251.155945 
	C135.549026,251.569824 135.796127,251.786835 136.070862,251.972397 
	C136.070862,251.972397 136.010849,251.989517 136.170380,252.154816 
	C136.549835,252.568939 136.797302,252.786438 137.072311,252.972641 
	C137.072311,252.972641 137.011612,252.988586 137.170776,253.153778 
	C137.550125,253.568146 137.797791,253.786026 138.072968,253.972641 
	C138.072968,253.972641 138.011948,253.988022 138.171082,254.153198 
	C138.550491,254.567642 138.798233,254.785706 139.073456,254.972565 
	C139.073456,254.972565 139.012222,254.987610 139.171417,255.152740 
	C139.551147,255.567154 139.798996,255.785431 140.074173,255.972656 
	C140.074173,255.972656 140.006302,255.965607 140.079498,256.267822 
	C140.436859,257.373596 140.721024,258.177155 140.632935,259.011932 
	C138.565491,259.678986 136.735413,260.085175 135.197464,260.988708 
	C126.629539,266.022156 118.095062,271.115295 109.627243,276.315216 
	C105.537582,278.826599 101.658607,281.678650 97.610771,284.261292 
	C94.053368,286.531036 93.791138,288.719757 97.021667,291.649597 
	C98.656685,293.132416 99.653900,295.318542 100.939484,297.186676 
	C100.320663,297.031952 99.486885,297.081909 99.115425,296.691711 
	C93.927864,291.242401 88.803459,285.732971 83.300079,279.764618 
	C82.227837,278.588196 81.519180,277.885376 80.810524,277.182526 
	C80.810524,277.182526 80.787239,277.165710 80.772774,277.159973 
z"/>
<path fill="#515FA6" opacity="1.000000" stroke="none" 
	d="
M116.935181,232.624542 
	C109.998985,236.419708 102.738098,239.567871 95.936722,243.509018 
	C85.930954,249.307007 76.253082,255.670868 66.118912,261.955292 
	C61.828487,258.354950 57.854679,254.592957 54.210434,250.422241 
	C55.326694,249.762787 56.210331,249.665314 56.885513,249.238251 
	C66.295700,243.286285 75.587997,237.142395 85.096764,231.353699 
	C91.664391,227.355499 97.454224,221.443436 106.064804,221.923416 
	C106.064804,221.923416 106.046738,221.986191 106.189362,222.150925 
	C106.553505,222.564560 106.801125,222.783997 107.074837,222.973999 
	C107.074837,222.973999 107.012772,222.987488 107.172638,223.151352 
	C107.554070,223.564011 107.801643,223.783463 108.075226,223.973557 
	C108.075226,223.973557 108.013092,223.987061 108.173111,224.150879 
	C108.554825,224.563461 108.802399,224.783051 109.075859,224.973434 
	C109.075859,224.973434 109.013481,224.986603 109.173676,225.150314 
	C109.555832,225.562820 109.803467,225.782700 110.076775,225.973663 
	C110.076775,225.973663 110.013954,225.986038 110.174271,226.149567 
	C110.556931,226.561981 110.804672,226.782333 111.077805,226.974136 
	C111.077805,226.974136 111.014404,226.985611 111.174706,227.148865 
	C111.557724,227.561142 111.805565,227.781937 112.078545,227.974518 
	C112.078545,227.974518 112.014572,227.986359 112.178078,228.143784 
	C112.568649,228.543930 112.825493,228.749435 113.112099,228.917709 
	C114.346718,230.055847 115.581337,231.194000 116.935181,232.624542 
z"/>
<path fill="#61559D" opacity="1.000000" stroke="none" 
	d="
M281.903351,96.994461 
	C277.516418,98.706421 272.770813,99.829239 268.809906,102.240906 
	C256.969208,109.450386 245.306747,116.975800 233.864166,124.801147 
	C230.593567,127.037849 228.308075,130.715027 225.294083,133.458801 
	C228.526901,126.528381 229.627197,119.405457 229.301331,111.683609 
	C231.227768,109.335655 232.601151,106.705917 234.768967,105.309425 
	C246.570358,97.707039 258.544006,90.370094 270.524872,83.050613 
	C272.157898,82.052940 274.163300,81.664772 276.312775,81.000061 
	C277.051300,81.006866 277.473328,81.008003 277.895355,81.009148 
	C277.895355,81.009148 278.028259,81.402832 278.039490,82.015450 
	C279.334961,87.416862 280.619171,92.205658 281.903351,96.994461 
z"/>
<path fill="#3672B3" opacity="1.000000" stroke="none" 
	d="
M162.010193,248.439575 
	C161.467926,244.445007 163.356476,242.164017 166.513992,240.277267 
	C178.295731,233.237122 189.947739,225.980026 201.715271,218.915695 
	C203.929016,217.586716 206.449295,216.768341 209.227753,215.366760 
	C209.627365,215.019150 210.046234,214.919525 210.046234,214.919525 
	C210.046234,214.919525 210.046539,214.937912 210.175232,215.145996 
	C210.512070,215.607086 210.760712,215.810623 211.049835,215.964706 
	C211.049835,215.964706 211.039185,215.967957 211.059998,216.321503 
	C213.747299,220.094101 216.413773,223.513138 218.828644,227.171066 
	C205.404495,235.480560 192.289032,243.646957 179.020737,251.556976 
	C175.537033,253.633820 173.374130,256.015411 173.797119,260.212555 
	C172.613815,259.076263 171.430511,257.939972 169.995239,256.201294 
	C169.084427,255.094666 168.425568,254.590393 167.766693,254.086136 
	C167.231171,253.628891 166.695663,253.171646 165.981064,252.127960 
	C164.788223,250.723206 163.774460,249.904907 162.760712,249.086594 
	C162.480988,249.016724 162.257721,248.864227 162.010193,248.439575 
z"/>
<path fill="#5B58A1" opacity="1.000000" stroke="none" 
	d="
M105.934471,221.619690 
	C97.454224,221.443436 91.664391,227.355499 85.096764,231.353699 
	C75.587997,237.142395 66.295700,243.286285 56.885513,249.238251 
	C56.210331,249.665314 55.326694,249.762787 54.168030,250.060959 
	C50.075661,246.478363 46.355255,242.848328 42.370705,238.840729 
	C42.106556,238.463165 42.222073,238.000778 42.590656,237.990402 
	C44.068264,237.682663 45.320724,237.622314 46.264179,237.051361 
	C55.920891,231.207306 65.419128,225.093048 75.187607,219.445099 
	C81.282570,215.921097 87.764252,213.065948 94.072395,209.910645 
	C94.072395,209.910645 94.059372,209.973969 94.198952,210.140991 
	C94.561829,210.556488 94.809364,210.777863 95.081139,210.972153 
	C95.081139,210.972153 95.017021,210.983246 95.177948,211.145370 
	C95.562241,211.556030 95.809822,211.777481 96.081612,211.971878 
	C96.081612,211.971878 96.017372,211.982849 96.178268,212.144958 
	C96.562561,212.555634 96.810165,212.777161 97.081963,212.971649 
	C97.081963,212.971649 97.017639,212.982529 97.178528,213.144608 
	C97.562866,213.555267 97.810471,213.776855 98.082245,213.971451 
	C98.082245,213.971451 98.017715,213.983261 98.181091,214.139664 
	C98.570946,214.538239 98.826187,214.744873 99.110184,214.915985 
	C101.341499,217.049316 103.572815,219.182648 105.934471,221.619690 
z"/>
<path fill="#D763A4" opacity="1.000000" stroke="none" 
	d="
M53.860348,48.913948 
	C59.754829,43.905865 65.611504,38.851986 71.575729,33.928383 
	C72.767578,32.944481 74.369781,32.457664 76.319122,31.415562 
	C77.585732,31.079226 78.315994,31.068968 79.340965,31.244717 
	C81.409531,31.304548 83.183388,31.178371 85.342545,31.044508 
	C86.498489,31.041815 87.269157,31.046806 88.316010,31.235310 
	C90.048454,31.297764 91.504707,31.176710 93.383896,31.046295 
	C95.216751,31.045444 96.626671,31.053959 98.265717,31.248611 
	C101.608856,33.182201 100.041290,34.258373 98.014168,35.501720 
	C73.243202,50.695107 48.480370,65.901985 23.779175,81.208237 
	C22.551092,81.969238 21.907625,83.673683 20.593456,84.955109 
	C19.131504,84.960892 18.068041,84.950394 17.012810,84.566383 
	C18.453506,81.881714 19.446348,79.068787 21.402288,77.355118 
	C26.887608,72.549248 32.888237,68.335739 38.449657,63.610859 
	C41.521866,61.000767 44.120544,57.833298 46.932686,54.917091 
	C46.932686,54.917091 47.001183,54.992619 47.319813,54.949314 
	C48.738125,53.911278 49.837807,52.916550 50.937489,51.921818 
	C50.937489,51.921818 51.000484,51.994160 51.299553,51.955276 
	C52.352528,50.915581 53.106438,49.914764 53.860348,48.913948 
z"/>
<path fill="#3672B3" opacity="1.000000" stroke="none" 
	d="
M101.067780,297.458252 
	C99.653900,295.318542 98.656685,293.132416 97.021667,291.649597 
	C93.791138,288.719757 94.053368,286.531036 97.610771,284.261292 
	C101.658607,281.678650 105.537582,278.826599 109.627243,276.315216 
	C118.095062,271.115295 126.629539,266.022156 135.197464,260.988708 
	C136.735413,260.085175 138.565491,259.678986 140.954346,259.158203 
	C142.790375,259.470062 143.932739,259.666870 145.075104,259.863647 
	C145.075104,259.863647 145.109497,259.910492 145.194794,260.145233 
	C145.456726,260.658691 145.668045,260.908020 145.914047,261.127930 
	C145.914047,261.127930 145.992966,261.498718 146.158569,261.899261 
	C146.572876,262.528137 146.821548,262.756500 147.070236,262.984833 
	C147.070236,262.984833 147.054916,263.007782 147.131516,263.309998 
	C148.144958,264.395142 149.081802,265.178040 150.018646,265.960968 
	C150.018646,265.960968 150.004257,265.981018 150.174759,266.152496 
	C150.564285,266.550293 150.791199,266.768433 151.026001,266.978363 
	C151.026001,266.978363 151.003281,266.994293 151.016296,267.239929 
	C151.036469,267.656464 151.043610,267.827362 150.955444,268.330658 
	C149.804504,269.662811 148.872070,270.851135 147.674454,271.633606 
	C133.096786,281.158356 118.480125,290.623352 103.873581,300.103851 
	C102.981079,299.312531 102.088585,298.521179 101.067780,297.458252 
z"/>
<path fill="#2E78B7" opacity="1.000000" stroke="none" 
	d="
M173.842651,260.572662 
	C173.374130,256.015411 175.537033,253.633820 179.020737,251.556976 
	C192.289032,243.646957 205.404495,235.480560 219.197189,227.186035 
	C220.558517,226.953384 221.299728,226.944672 222.040924,226.935974 
	C222.040924,226.935974 222.016296,226.963394 222.147995,227.169266 
	C222.483810,227.639877 222.740494,227.835770 223.049713,227.962799 
	C223.049713,227.962799 223.001129,227.999390 223.140320,228.187256 
	C223.483734,228.640137 223.740631,228.836105 224.050217,228.963013 
	C224.050217,228.963013 224.001297,228.999252 224.140396,229.187073 
	C224.483871,229.639999 224.740875,229.836182 225.050522,229.963425 
	C225.050522,229.963425 225.001419,229.999146 225.140533,230.186829 
	C225.484161,230.639587 225.741135,230.836075 226.050552,230.963974 
	C226.050552,230.963974 225.997772,230.994843 226.107254,231.196869 
	C226.367691,231.689957 226.577316,231.929733 226.845581,232.118256 
	C229.499146,234.870010 232.152710,237.621765 234.585571,240.662369 
	C230.355850,239.070404 226.938278,236.431229 221.892563,239.906113 
	C211.243378,247.239975 199.995132,253.699203 189.070038,260.639069 
	C183.236160,264.344879 183.327179,264.450714 186.275345,270.751709 
	C186.612366,271.471985 186.603180,272.354248 186.754501,273.161407 
	C183.453720,270.070740 180.145950,266.987488 176.856323,263.884979 
	C175.841507,262.927887 174.876175,261.918304 173.842651,260.572662 
z"/>
<path fill="#61529C" opacity="1.000000" stroke="none" 
	d="
M93.943512,209.613831 
	C87.764252,213.065948 81.282570,215.921097 75.187607,219.445099 
	C65.419128,225.093048 55.920891,231.207306 46.264179,237.051361 
	C45.320724,237.622314 44.068264,237.682663 42.309937,237.789856 
	C41.007511,237.436707 40.354385,237.273727 39.701256,237.110748 
	C37.533611,235.038193 35.365959,232.965652 33.167332,230.294601 
	C33.214397,229.484299 33.292439,229.272507 33.697941,228.958344 
	C40.748837,225.016022 47.458599,221.151901 54.199005,217.341995 
	C63.648720,212.000717 71.289024,202.404480 83.979141,204.625366 
	C84.256050,204.673828 84.589249,204.400589 84.896179,204.277420 
	C85.087944,204.220093 85.279716,204.162750 85.985359,204.050873 
	C86.499237,203.996338 86.937904,203.994171 86.937904,203.994171 
	C87.126205,204.026886 87.314499,204.059601 87.935204,204.295837 
	C88.586983,204.666901 88.821159,204.810226 89.070129,204.929367 
	C90.651634,206.391922 92.233131,207.854477 93.943512,209.613831 
z"/>
<path fill="#2B76B6" opacity="1.000000" stroke="none" 
	d="
M103.984337,300.357605 
	C118.480125,290.623352 133.096786,281.158356 147.674454,271.633606 
	C148.872070,270.851135 149.804504,269.662811 151.197235,268.327820 
	C151.534317,267.992584 152.021027,267.977753 152.021027,267.977753 
	C152.021027,267.977753 152.005859,268.001221 152.161530,268.173279 
	C152.533936,268.581757 152.769867,268.797119 153.024979,268.991455 
	C153.024979,268.991455 152.996414,269.003662 153.156738,269.173889 
	C153.534561,269.581268 153.771225,269.797485 154.027039,269.992737 
	C154.027039,269.992737 153.995026,269.993713 154.086105,270.311768 
	C155.463593,271.746368 156.750000,272.862885 158.036392,273.979401 
	C158.036392,273.979401 158.000366,274.008148 158.158936,274.172729 
	C158.539795,274.578583 158.780762,274.799408 159.040421,274.999847 
	C159.040421,274.999847 158.988800,275.011200 159.153198,275.173523 
	C159.540726,275.578003 159.782501,275.799774 160.042923,276.001221 
	C160.042923,276.001221 159.993942,276.003082 160.012085,276.268707 
	C160.045792,276.724060 160.061356,276.913757 159.936035,277.405090 
	C158.770721,278.517212 157.808777,279.426208 156.711884,280.122620 
	C148.154037,285.555573 139.498611,290.839630 131.053726,296.441620 
	C129.319229,297.592255 128.341934,299.884369 126.551292,301.721649 
	C119.118454,301.817200 112.149956,301.841431 105.181458,301.865662 
	C104.819328,301.447571 104.457207,301.029480 103.984337,300.357605 
z"/>
<path fill="#207BB9" opacity="1.000000" stroke="none" 
	d="
M186.774384,273.186615 
	C186.603180,272.354248 186.612366,271.471985 186.275345,270.751709 
	C183.327179,264.450714 183.236160,264.344879 189.070038,260.639069 
	C199.995132,253.699203 211.243378,247.239975 221.892563,239.906113 
	C226.938278,236.431229 230.355850,239.070404 234.731323,240.973938 
	C236.018768,241.811172 236.939743,242.625656 237.758911,243.997498 
	C221.781052,254.372147 205.905029,264.189453 189.724731,273.872437 
	C188.565781,273.557373 187.711105,273.376617 186.856430,273.195862 
	C186.856430,273.195831 186.794250,273.211823 186.774384,273.186615 
z"/>
<path fill="#1581BD" opacity="1.000000" stroke="none" 
	d="
M190.029007,274.006775 
	C205.905029,264.189453 221.781052,254.372147 237.881836,244.284454 
	C238.106583,244.014069 238.407166,244.033783 238.726868,244.304703 
	C239.378662,244.701828 239.710724,244.828018 240.042801,244.954224 
	C240.042801,244.954224 240.000000,245.000000 240.098969,245.220123 
	C240.481476,245.613647 240.765030,245.787048 241.048569,245.960464 
	C241.048569,245.960464 241.000610,245.999481 241.099609,246.219360 
	C241.482208,246.613113 241.765808,246.786972 242.049393,246.960846 
	C242.049393,246.960846 242.000656,246.999390 242.099823,247.218979 
	C242.482742,247.612701 242.766495,247.786835 243.050232,247.960968 
	C243.050232,247.960968 243.010941,247.995483 242.980316,248.344727 
	C243.018509,249.661880 243.087311,250.629807 243.156128,251.597717 
	C233.199112,257.844727 223.242249,264.091980 213.285004,270.338623 
	C209.068726,272.983704 204.849380,275.623871 200.635910,278.273376 
	C198.313110,279.733978 198.000610,281.280884 199.935974,283.509552 
	C202.412827,286.361725 204.561188,289.499176 206.900055,292.869629 
	C204.301834,290.988037 201.529282,288.879822 199.045959,286.473145 
	C196.951370,284.443176 195.192520,282.066742 193.076584,279.211426 
	C191.868286,277.766968 190.868439,276.954773 189.868576,276.142548 
	C189.868576,276.142548 189.854156,276.103271 189.899872,275.765503 
	C189.973373,274.954071 190.001190,274.480408 190.029007,274.006775 
z"/>
<path fill="#6A549E" opacity="1.000000" stroke="none" 
	d="
M84.485413,204.207520 
	C84.589249,204.400589 84.256050,204.673828 83.979141,204.625366 
	C71.289024,202.404480 63.648720,212.000717 54.199005,217.341995 
	C47.458599,221.151901 40.748837,225.016022 33.434364,228.769379 
	C32.251110,228.454437 31.658890,228.226059 31.066671,227.997681 
	C29.788116,226.587112 28.509558,225.176544 27.048801,223.139648 
	C27.614441,220.765289 27.886131,218.402924 29.199696,217.384796 
	C33.083897,214.374268 37.342815,211.835495 41.528725,209.230408 
	C43.945553,207.726288 44.388130,206.198517 42.104549,204.251114 
	C56.094585,204.213287 70.084618,204.175461 84.485413,204.207520 
z"/>
<path fill="#71549E" opacity="1.000000" stroke="none" 
	d="
M267.181305,63.922897 
	C269.819611,67.650818 272.457947,71.378738 275.076721,75.523972 
	C275.057159,75.941292 274.932770,76.056114 274.626801,75.927734 
	C271.965088,74.253471 271.326019,69.629387 266.522736,72.830017 
	C254.372757,80.926109 241.789444,88.369843 229.562836,96.355278 
	C227.812408,97.498520 227.077225,100.196175 225.553406,102.032700 
	C222.432693,98.634285 219.630753,95.377617 217.201447,92.083931 
	C218.498291,91.694183 219.507828,91.479355 220.333954,90.968140 
	C233.634003,82.737892 246.872498,74.407143 260.233246,66.277161 
	C262.271912,65.036636 264.851776,64.685432 267.181305,63.922897 
z"/>
<path fill="#80569F" opacity="1.000000" stroke="none" 
	d="
M200.997284,85.829651 
	C203.255859,83.760391 205.279602,81.330185 207.812347,79.682350 
	C221.028992,71.083443 234.408295,62.734676 247.635086,54.151093 
	C249.349152,53.038750 250.507996,51.070816 252.018188,49.155003 
	C255.049072,51.326565 257.985748,53.842316 260.671509,56.684696 
	C259.302246,57.265957 258.014343,57.246071 257.090942,57.816341 
	C243.133987,66.435707 229.179764,75.062042 215.367126,83.908798 
	C213.804688,84.909523 213.103165,87.254425 211.618103,89.020798 
	C207.821640,87.986938 204.409454,86.908295 200.997284,85.829651 
z"/>
<path fill="#7A579F" opacity="1.000000" stroke="none" 
	d="
M212.002411,88.976013 
	C213.103165,87.254425 213.804688,84.909523 215.367126,83.908798 
	C229.179764,75.062042 243.133987,66.435707 257.090942,57.816341 
	C258.014343,57.246071 259.302246,57.265957 260.813965,56.999458 
	C263.105286,59.092133 265.003235,61.196674 267.041260,63.612057 
	C264.851776,64.685432 262.271912,65.036636 260.233246,66.277161 
	C246.872498,74.407143 233.634003,82.737892 220.333954,90.968140 
	C219.507828,91.479355 218.498291,91.694183 216.958282,91.949265 
	C215.891037,91.544090 215.439590,91.236565 214.814667,90.763351 
	C214.394730,90.391884 214.128601,90.215874 213.593445,89.959778 
	C212.896866,89.558632 212.449631,89.267319 212.002411,88.976013 
z"/>
<path fill="#1581BD" opacity="1.000000" stroke="none" 
	d="
M176.090927,292.030579 
	C178.976410,294.470398 181.861908,296.910217 184.683167,300.024048 
	C183.402710,301.098267 182.186768,301.843658 180.970200,301.844635 
	C170.318222,301.853394 159.666122,301.729248 149.047516,301.308075 
	C150.349106,299.354858 151.305847,297.243805 152.942841,296.212494 
	C158.193909,292.904388 163.696564,289.995605 169.375641,287.115845 
	C171.448822,288.532410 173.248520,289.765900 175.048218,290.999390 
	C175.048218,290.999390 174.986755,291.014374 175.136093,291.194641 
	C175.553925,291.593475 175.822433,291.812012 176.090927,292.030579 
z"/>
<path fill="#7A579F" opacity="1.000000" stroke="none" 
	d="
M41.823982,204.171509 
	C44.388130,206.198517 43.945553,207.726288 41.528725,209.230408 
	C37.342815,211.835495 33.083897,214.374268 29.199696,217.384796 
	C27.886131,218.402924 27.614441,220.765289 26.894611,222.862061 
	C20.285412,217.179825 13.648208,211.148849 5.878381,204.088699 
	C8.388178,204.088699 9.395971,204.088699 11.016606,204.310364 
	C12.710855,204.430328 13.792261,204.328644 14.873669,204.226959 
	C15.061604,204.174667 15.249539,204.122391 15.967878,204.017563 
	C16.498281,203.965027 16.989128,203.946655 16.989128,203.946655 
	C17.183096,203.989136 17.377066,204.031631 18.213762,204.325821 
	C25.532816,204.466736 32.209141,204.355957 38.885468,204.245193 
	C39.073780,204.192581 39.262096,204.139984 39.974331,204.035522 
	C40.498253,203.983627 40.973583,203.967407 40.973583,203.967407 
	C41.163525,204.008896 41.353470,204.050400 41.823982,204.171509 
z"/>
<path fill="#89CFFB" opacity="1.000000" stroke="none" 
	d="
M149.014069,301.644501 
	C159.666122,301.729248 170.318222,301.853394 180.970200,301.844635 
	C182.186768,301.843658 183.402710,301.098267 184.789917,300.341858 
	C187.126968,303.570099 187.018143,304.025726 183.216217,303.945038 
	C178.809158,303.851501 174.409882,303.045502 170.009659,303.066162 
	C164.780899,303.090729 159.558197,303.868683 154.326675,303.957855 
	C145.050644,304.115967 135.766388,304.157898 126.492325,303.948761 
	C119.434837,303.789642 112.387802,303.166412 105.258789,302.307678 
	C112.149956,301.841431 119.118454,301.817200 127.013824,301.790863 
	C134.965149,301.740662 141.989609,301.692566 149.014069,301.644501 
z"/>
<path fill="#C083B0" opacity="1.000000" stroke="none" 
	d="
M79.046265,31.058708 
	C78.315994,31.068968 77.585732,31.079226 76.490692,31.099285 
	C76.699226,30.724886 77.272827,30.003954 77.845764,30.004492 
	C119.772491,30.043800 161.699158,30.140312 203.850906,30.609837 
	C199.021713,31.000114 193.967468,31.012777 187.979370,31.021225 
	C178.689758,31.032780 170.333954,31.048552 161.512421,31.045311 
	C153.358566,31.319019 145.670441,31.611742 137.596619,31.899519 
	C136.182465,31.912205 135.154037,31.929834 133.822205,31.758858 
	C132.360016,31.402180 131.201187,31.234108 129.571259,31.055328 
	C122.055367,31.050249 115.010582,31.055876 107.514290,31.049400 
	C104.054047,31.045692 101.045326,31.054085 98.036598,31.062475 
	C96.626671,31.053959 95.216751,31.045444 92.974716,31.030579 
	C90.775009,31.033421 89.407410,31.042610 88.039818,31.051800 
	C87.269157,31.046806 86.498489,31.041815 84.921478,31.029110 
	C82.425507,31.033836 80.735886,31.046272 79.046265,31.058708 
z"/>
<path fill="#4394B6" opacity="1.000000" stroke="none" 
	d="
M263.045441,271.009247 
	C260.052429,267.500214 257.059418,263.991180 253.982544,260.125854 
	C258.024750,263.334381 262.309326,266.733368 266.245819,270.496460 
	C276.295471,280.103363 286.195251,289.867188 296.127991,299.595825 
	C296.553772,300.012878 296.710449,300.704712 296.578613,301.610779 
	C295.486328,301.925415 294.807922,301.897797 293.932251,301.598999 
	C288.912384,296.763794 284.089752,292.199799 279.163330,287.318726 
	C273.721497,281.670837 268.383484,276.340027 263.045441,271.009247 
z"/>
<path fill="#89CFFB" opacity="1.000000" stroke="none" 
	d="
M294.129486,301.870209 
	C294.807922,301.897797 295.486328,301.925415 296.503876,301.964966 
	C295.393311,302.656738 293.933868,303.939545 292.495605,303.916168 
	C284.595215,303.787659 276.702271,303.150909 268.802399,303.057465 
	C261.862915,302.975342 254.916916,303.557556 247.975204,303.526520 
	C237.285660,303.478760 226.597244,303.161316 215.909164,302.922180 
	C215.718872,302.917908 215.538696,302.462128 215.690781,302.003601 
	C216.027756,301.790161 216.512817,301.843292 217.217377,301.848511 
	C232.937363,301.831329 247.952759,301.808899 263.434082,301.864258 
	C273.976471,301.918121 284.052979,301.894165 294.129486,301.870209 
z"/>
<path fill="#D7C1E2" opacity="1.000000" stroke="none" 
	d="
M118.031525,86.840233 
	C118.153351,102.037399 118.116829,117.053902 118.095993,133.002350 
	C118.135742,156.584961 118.159798,179.235611 118.183853,201.886276 
	C118.142937,202.080215 118.102013,202.274139 118.025116,202.763123 
	C117.661949,201.562317 117.051331,200.066833 117.049065,198.570450 
	C116.993156,161.725525 117.001747,124.880516 117.030685,87.346817 
	C117.062538,86.658119 117.060905,86.185760 117.060905,86.185760 
	C117.396851,86.231926 117.667618,86.389862 118.031525,86.840233 
z"/>
<path fill="#D163A3" opacity="1.000000" stroke="none" 
	d="
M46.580418,54.951332 
	C44.120544,57.833298 41.521866,61.000767 38.449657,63.610859 
	C32.888237,68.335739 26.887608,72.549248 21.402288,77.355118 
	C19.446348,79.068787 18.453506,81.881714 16.668409,84.587944 
	C15.219924,85.234909 14.124074,85.486801 12.708355,85.769836 
	C11.960990,85.780495 11.533493,85.759995 11.083742,85.375809 
	C11.037988,84.282150 11.014488,83.552185 10.990990,82.822227 
	C11.007235,82.500023 11.153985,82.256454 11.943323,81.975281 
	C12.956581,81.534912 13.457759,81.210770 13.958937,80.886620 
	C22.904934,73.598961 31.841022,66.299072 40.805458,59.034164 
	C42.556599,57.615013 44.417740,56.331593 46.580418,54.951332 
z"/>
<path fill="#FAD3F0" opacity="1.000000" stroke="none" 
	d="
M11.105996,85.739502 
	C11.533493,85.759995 11.960990,85.780495 13.166052,85.841171 
	C17.991264,85.827499 22.038912,85.773651 26.516062,85.762550 
	C28.967398,85.781494 30.989233,85.757698 33.449127,85.810104 
	C36.255119,85.840485 38.623051,85.794662 41.458088,85.785339 
	C47.607533,85.760757 53.289875,85.699684 59.439243,85.708618 
	C66.929802,85.738060 73.953339,85.697495 81.442360,85.723969 
	C90.268463,85.740349 98.629074,85.689682 106.989693,85.639015 
	C108.106743,85.713310 109.223793,85.787605 110.761108,85.904770 
	C110.029526,86.301353 108.878166,86.962212 107.725746,86.964073 
	C74.789551,87.017471 41.853241,87.010368 8.917001,86.971581 
	C8.043446,86.970551 7.170432,86.508575 7.040094,86.042831 
	C8.890681,85.795906 9.998339,85.767700 11.105996,85.739502 
z"/>
<path fill="#71549E" opacity="1.000000" stroke="none" 
	d="
M282.009003,97.388840 
	C280.619171,92.205658 279.334961,87.416862 278.066284,82.221474 
	C280.384949,89.330513 282.858582,96.800056 284.908661,104.384087 
	C285.747742,107.488220 285.671082,110.839882 285.644562,114.528343 
	C284.871735,114.978775 284.465363,114.979797 284.058990,114.980820 
	C284.047516,114.812965 284.036041,114.645096 283.999603,114.225716 
	C283.354675,108.577217 282.734650,103.180214 282.009003,97.388840 
z"/>
<path fill="#4394B6" opacity="1.000000" stroke="none" 
	d="
M221.941254,226.615753 
	C221.299728,226.944672 220.558517,226.953384 219.448792,226.947144 
	C216.413773,223.513138 213.747299,220.094101 211.072815,216.315155 
	C214.657059,219.402008 218.249329,222.848770 221.941254,226.615753 
z"/>
<path fill="#6A549E" opacity="1.000000" stroke="none" 
	d="
M38.433662,204.168518 
	C32.209141,204.355957 25.532816,204.466736 18.500763,204.405487 
	C24.757309,204.186279 31.369583,204.139069 38.433662,204.168518 
z"/>
<path fill="#4394B6" opacity="1.000000" stroke="none" 
	d="
M175.027527,290.642273 
	C173.248520,289.765900 171.448822,288.532410 169.229462,286.838318 
	C168.525360,285.594574 168.240891,284.811493 167.972198,284.017487 
	C167.987991,284.006592 168.017029,283.980774 168.017029,283.980774 
	C170.346970,286.082245 172.676895,288.183685 175.027527,290.642273 
z"/>
<path fill="#5859A1" opacity="1.000000" stroke="none" 
	d="
M284.042877,115.394592 
	C284.465363,114.979797 284.871735,114.978775 285.583435,114.968918 
	C285.932098,117.018730 285.975464,119.077362 285.962097,121.573349 
	C285.279144,119.943245 284.652954,117.875801 284.042877,115.394592 
z"/>
<path fill="#4394B6" opacity="1.000000" stroke="none" 
	d="
M243.536331,251.696564 
	C243.087311,250.629807 243.018509,249.661880 243.003448,248.326538 
	C244.329071,249.080231 245.600937,250.201355 246.953583,251.634872 
	C245.995071,251.896652 244.955811,251.846039 243.536331,251.696564 
z"/>
<path fill="#4394B6" opacity="1.000000" stroke="none" 
	d="
M158.017059,273.621735 
	C156.750000,272.862885 155.463593,271.746368 154.099442,270.301880 
	C155.347046,271.070648 156.672379,272.167358 158.017059,273.621735 
z"/>
<path fill="#4C66A9" opacity="1.000000" stroke="none" 
	d="
M144.976868,259.545288 
	C143.932739,259.666870 142.790375,259.470062 141.326599,259.126984 
	C140.721024,258.177155 140.436859,257.373596 140.109924,256.252350 
	C141.670975,257.032104 143.274811,258.129517 144.976868,259.545288 
z"/>
<path fill="#C083B0" opacity="1.000000" stroke="none" 
	d="
M11.083742,85.375801 
	C9.998339,85.767700 8.890681,85.795906 7.370869,85.821907 
	C8.062160,84.863983 9.165604,83.908257 10.630018,82.887375 
	C11.014488,83.552185 11.037988,84.282150 11.083742,85.375801 
z"/>
<path fill="#D163A3" opacity="1.000000" stroke="none" 
	d="
M50.605682,51.956974 
	C49.837807,52.916550 48.738125,53.911278 47.281090,54.916740 
	C48.040451,53.949024 49.157162,52.970577 50.605682,51.956974 
z"/>
<path fill="#C083B0" opacity="1.000000" stroke="none" 
	d="
M116.801575,85.954590 
	C117.060905,86.185760 117.062538,86.658119 117.000916,86.886162 
	C115.535133,86.734062 114.130966,86.353920 112.353951,85.915665 
	C113.501472,85.812843 115.021858,85.768135 116.801575,85.954590 
z"/>
<path fill="#D163A3" opacity="1.000000" stroke="none" 
	d="
M53.584152,49.048931 
	C53.106438,49.914764 52.352528,50.915581 51.263359,51.924240 
	C51.721386,51.016022 52.514668,50.099968 53.584152,49.048931 
z"/>
<path fill="#71549E" opacity="1.000000" stroke="none" 
	d="
M277.844116,80.667473 
	C277.473328,81.008003 277.051300,81.006866 276.241058,80.646027 
	C275.546173,78.876259 275.239471,77.466187 274.932770,76.056114 
	C274.932770,76.056114 275.057159,75.941292 275.119141,75.883636 
	C276.051697,77.325912 276.922302,78.825859 277.844116,80.667473 
z"/>
<path fill="#436CAE" opacity="1.000000" stroke="none" 
	d="
M162.806824,249.444977 
	C163.774460,249.904907 164.788223,250.723206 165.857330,251.891846 
	C164.892746,251.429245 163.872833,250.616302 162.806824,249.444977 
z"/>
<path fill="#4394B6" opacity="1.000000" stroke="none" 
	d="
M150.000839,265.605713 
	C149.081802,265.178040 148.144958,264.395142 147.125397,263.299072 
	C148.022797,263.740753 149.002914,264.495605 150.000839,265.605713 
z"/>
<path fill="#2E78B7" opacity="1.000000" stroke="none" 
	d="
M189.724731,273.872437 
	C190.001190,274.480408 189.973373,274.954071 189.883209,275.778168 
	C188.839157,275.381561 187.857452,274.634491 186.866089,273.541626 
	C187.711105,273.376617 188.565781,273.557373 189.724731,273.872437 
z"/>
<path fill="#2E78B7" opacity="1.000000" stroke="none" 
	d="
M189.872879,276.501984 
	C190.868439,276.954773 191.868286,277.766968 192.911621,278.933411 
	C191.929138,278.478912 190.903152,277.670166 189.872879,276.501984 
z"/>
<path fill="#4C66A9" opacity="1.000000" stroke="none" 
	d="
M80.840477,277.515259 
	C81.519180,277.885376 82.227837,278.588196 82.984940,279.619324 
	C82.312416,279.247772 81.591423,278.547882 80.840477,277.515259 
z"/>
<path fill="#436CAE" opacity="1.000000" stroke="none" 
	d="
M167.816772,254.442505 
	C168.425568,254.590393 169.084427,255.094666 169.827759,255.916931 
	C169.230453,255.756226 168.548660,255.277542 167.816772,254.442505 
z"/>
<path fill="#6A549E" opacity="1.000000" stroke="none" 
	d="
M14.505522,204.152679 
	C13.792261,204.328644 12.710855,204.430328 11.388468,204.380524 
	C12.144116,204.178802 13.140745,204.128601 14.505522,204.152679 
z"/>
<path fill="#1581BD" opacity="1.000000" stroke="none" 
	d="
M210.913284,297.333679 
	C211.446762,297.471832 212.122772,297.888855 212.927902,298.590057 
	C212.389954,298.453674 211.722885,298.033112 210.913284,297.333679 
z"/>
<path fill="#7A579F" opacity="1.000000" stroke="none" 
	d="
M39.858089,237.379303 
	C40.354385,237.273727 41.007511,237.436707 41.941353,237.800232 
	C42.222073,238.000778 42.106556,238.463165 42.054420,238.695648 
	C41.339828,238.501358 40.677376,238.074600 39.858089,237.379303 
z"/>
<path fill="#7A579F" opacity="1.000000" stroke="none" 
	d="
M31.069557,228.311340 
	C31.658890,228.226059 32.251110,228.454437 33.106911,228.871765 
	C33.292439,229.272507 33.214397,229.484299 33.015656,230.012634 
	C32.287453,229.761124 31.679951,229.193069 31.069557,228.311340 
z"/>
<path fill="#C083B0" opacity="1.000000" stroke="none" 
	d="
M13.640615,80.933792 
	C13.457759,81.210770 12.956581,81.534912 12.157749,81.922661 
	C12.347495,81.651169 12.834895,81.316063 13.640615,80.933792 
z"/>
<path fill="#61529C" opacity="1.000000" stroke="none" 
	d="
M94.998650,210.716888 
	C94.809364,210.777863 94.561829,210.556488 94.181778,210.113586 
	C94.322075,210.100006 94.619118,210.280807 94.998650,210.716888 
z"/>
<path fill="#4394B6" opacity="1.000000" stroke="none" 
	d="
M250.997604,255.695007 
	C250.736130,255.805252 250.427795,255.650528 250.079865,255.226074 
	C250.343750,255.114243 250.647263,255.272141 250.997604,255.695007 
z"/>
<path fill="#4394B6" opacity="1.000000" stroke="none" 
	d="
M206.005676,210.713776 
	C205.809128,210.813934 205.576263,210.646713 205.221130,210.295868 
	C205.377167,210.240128 205.667343,210.351532 206.005676,210.713776 
z"/>
<path fill="#61529C" opacity="1.000000" stroke="none" 
	d="
M95.998672,211.716858 
	C95.809822,211.777481 95.562241,211.556030 95.182037,211.113083 
	C95.322052,211.099716 95.618889,211.280777 95.998672,211.716858 
z"/>
<path fill="#4394B6" opacity="1.000000" stroke="none" 
	d="
M153.950256,269.744110 
	C153.771225,269.797485 153.534561,269.581268 153.162521,269.159485 
	C153.296478,269.148376 153.584991,269.321930 153.950256,269.744110 
z"/>
<path fill="#4394B6" opacity="1.000000" stroke="none" 
	d="
M152.948730,268.743530 
	C152.769867,268.797119 152.533936,268.581757 152.163300,268.161285 
	C152.297104,268.149994 152.584793,268.322784 152.948730,268.743530 
z"/>
<path fill="#4394B6" opacity="1.000000" stroke="none" 
	d="
M206.997192,211.705826 
	C206.792450,211.777817 206.554001,211.561462 206.182907,211.135117 
	C206.333588,211.112473 206.637970,211.276596 206.997192,211.705826 
z"/>
<path fill="#4394B6" opacity="1.000000" stroke="none" 
	d="
M151.946442,267.734436 
	C152.021027,267.977753 151.534317,267.992584 151.292542,267.995422 
	C151.043610,267.827362 151.036469,267.656464 151.029770,267.229156 
	C151.310760,267.145538 151.591309,267.318329 151.946442,267.734436 
z"/>
<path fill="#4394B6" opacity="1.000000" stroke="none" 
	d="
M150.948120,266.735565 
	C150.791199,266.768433 150.564285,266.550293 150.184448,266.151062 
	C150.305847,266.149689 150.588043,266.321228 150.948120,266.735565 
z"/>
<path fill="#61529C" opacity="1.000000" stroke="none" 
	d="
M96.998657,212.716843 
	C96.810165,212.777161 96.562561,212.555634 96.182281,212.112610 
	C96.322052,212.099457 96.618706,212.280746 96.998657,212.716843 
z"/>
<path fill="#4C66A9" opacity="1.000000" stroke="none" 
	d="
M146.993408,262.727142 
	C146.821548,262.756500 146.572876,262.528137 146.188187,262.086487 
	C146.340317,262.071960 146.628433,262.270691 146.993408,262.727142 
z"/>
<path fill="#4394B6" opacity="1.000000" stroke="none" 
	d="
M207.997925,212.706329 
	C207.792862,212.778625 207.553986,212.562119 207.182526,212.135101 
	C207.333450,212.112335 207.638184,212.276642 207.997925,212.706329 
z"/>
<path fill="#4C66A9" opacity="1.000000" stroke="none" 
	d="
M145.962402,260.831421 
	C145.668045,260.908020 145.456726,260.658691 145.170319,260.160889 
	C145.377258,260.139496 145.694000,260.337189 145.962402,260.831421 
z"/>
<path fill="#61529C" opacity="1.000000" stroke="none" 
	d="
M97.998703,213.716782 
	C97.810471,213.776855 97.562866,213.555267 97.182518,213.112244 
	C97.322128,213.099228 97.618645,213.280670 97.998703,213.716782 
z"/>
<path fill="#4394B6" opacity="1.000000" stroke="none" 
	d="
M253.879211,259.110931 
	C253.570236,259.140320 253.324585,258.841492 253.060822,258.250580 
	C253.342667,258.233215 253.642624,258.507965 253.879211,259.110931 
z"/>
<path fill="#4394B6" opacity="1.000000" stroke="none" 
	d="
M252.999008,257.695801 
	C252.738953,257.804901 252.431335,257.648560 252.081390,257.223267 
	C252.343185,257.113007 252.647324,257.271698 252.999008,257.695801 
z"/>
<path fill="#4394B6" opacity="1.000000" stroke="none" 
	d="
M251.998291,256.695374 
	C251.737228,256.805237 251.428970,256.649994 251.080261,256.225098 
	C251.343567,256.113708 251.647339,256.271942 251.998291,256.695374 
z"/>
<path fill="#4394B6" opacity="1.000000" stroke="none" 
	d="
M208.999283,213.706329 
	C208.792633,213.779999 208.552994,213.563461 208.181625,213.134918 
	C208.333527,213.111450 208.639008,213.275864 208.999283,213.706329 
z"/>
<path fill="#4C66A9" opacity="1.000000" stroke="none" 
	d="
M139.991730,255.719391 
	C139.798996,255.785431 139.551147,255.567154 139.177917,255.121872 
	C139.319901,255.105972 139.614578,255.286041 139.991730,255.719391 
z"/>
<path fill="#4394B6" opacity="1.000000" stroke="none" 
	d="
M164.016251,279.980774 
	C164.304367,280.148773 164.592484,280.316772 164.938080,280.744690 
	C164.995560,281.004578 164.974182,281.025696 164.779282,280.888885 
	C164.338898,280.545349 164.135406,280.303314 163.984589,280.015198 
	C163.995270,280.004425 164.016251,279.980774 164.016251,279.980774 
z"/>
<path fill="#4394B6" opacity="1.000000" stroke="none" 
	d="
M175.997040,291.769592 
	C175.822433,291.812012 175.553925,291.593475 175.134186,291.163086 
	C175.289673,291.137024 175.596420,291.322815 175.997040,291.769592 
z"/>
<path fill="#6A549E" opacity="1.000000" stroke="none" 
	d="
M16.924461,203.731598 
	C16.989128,203.946655 16.498281,203.965027 16.253759,203.955170 
	C16.292757,203.802399 16.576275,203.659470 16.924461,203.731598 
z"/>
<path fill="#6A549E" opacity="1.000000" stroke="none" 
	d="
M40.913643,203.751831 
	C40.973583,203.967407 40.498253,203.983627 40.261337,203.975174 
	C40.300854,203.823242 40.577278,203.679764 40.913643,203.751831 
z"/>
<path fill="#6A549E" opacity="1.000000" stroke="none" 
	d="
M86.882507,203.789948 
	C86.937904,203.994171 86.499237,203.996338 86.280380,203.995178 
	C86.316719,203.857925 86.571907,203.721817 86.882507,203.789948 
z"/>
<path fill="#4394B6" opacity="1.000000" stroke="none" 
	d="
M167.016647,282.980408 
	C167.304581,283.147919 167.592529,283.315430 167.948746,283.731873 
	C168.017029,283.980774 167.987991,284.006592 167.780975,283.878784 
	C167.334717,283.541656 167.134827,283.299805 166.984985,283.014709 
	C166.995651,283.004028 167.016647,282.980408 167.016647,282.980408 
z"/>
<path fill="#4394B6" opacity="1.000000" stroke="none" 
	d="
M166.016357,281.980743 
	C166.304367,282.148041 166.592392,282.315308 166.948517,282.731506 
	C167.016647,282.980408 166.995651,283.004028 166.790863,282.877045 
	C166.341446,282.542938 166.137573,282.301422 165.984985,282.014862 
	C165.995499,282.004272 166.016357,281.980743 166.016357,281.980743 
z"/>
<path fill="#4394B6" opacity="1.000000" stroke="none" 
	d="
M165.007217,280.993958 
	C165.306564,281.149902 165.594238,281.316437 165.949142,281.731873 
	C166.016357,281.980743 165.995499,282.004272 165.790375,281.877686 
	C165.340134,281.544250 165.136429,281.302429 164.974182,281.025696 
	C164.974182,281.025696 164.995560,281.004578 165.007217,280.993958 
z"/>
<path fill="#4394B6" opacity="1.000000" stroke="none" 
	d="
M158.960175,274.747681 
	C158.780762,274.799408 158.539795,274.578583 158.159119,274.149719 
	C158.293777,274.139862 158.586853,274.317657 158.960175,274.747681 
z"/>
<path fill="#4394B6" opacity="1.000000" stroke="none" 
	d="
M163.015747,278.981384 
	C163.303635,279.148682 163.591537,279.316010 163.947845,279.732056 
	C164.016251,279.980774 163.995270,280.004425 163.789429,279.878662 
	C163.337875,279.546265 163.134567,279.304047 162.984283,279.015503 
	C162.994904,279.004822 163.015747,278.981384 163.015747,278.981384 
z"/>
<path fill="#4394B6" opacity="1.000000" stroke="none" 
	d="
M162.015015,277.982117 
	C162.302963,278.149353 162.590912,278.316620 162.947311,278.732605 
	C163.015747,278.981384 162.994904,279.004822 162.788940,278.879272 
	C162.337036,278.547363 162.133759,278.305145 161.983704,278.016357 
	C161.994263,278.005554 162.015015,277.982117 162.015015,277.982117 
z"/>
<path fill="#4394B6" opacity="1.000000" stroke="none" 
	d="
M161.013931,276.983246 
	C161.302032,277.150299 161.590118,277.317383 161.946625,277.733276 
	C162.015015,277.982117 161.994263,278.005554 161.789154,277.885406 
	C161.336624,277.568390 161.131393,277.334503 160.979095,277.043213 
	C160.989868,277.022766 161.013931,276.983246 161.013931,276.983246 
z"/>
<path fill="#6A549E" opacity="1.000000" stroke="none" 
	d="
M88.981247,204.710266 
	C88.821159,204.810226 88.586983,204.666901 88.214432,204.360748 
	C88.413567,204.079605 88.690598,204.169296 88.981247,204.710266 
z"/>
<path fill="#7A579F" opacity="1.000000" stroke="none" 
	d="
M118.123749,204.275177 
	C118.347862,204.231110 118.538437,204.470596 118.809875,204.935287 
	C118.657547,204.933136 118.390709,204.732559 118.123749,204.275177 
z"/>
<path fill="#4394B6" opacity="1.000000" stroke="none" 
	d="
M160.076904,277.103455 
	C160.061356,276.913757 160.045792,276.724060 160.026138,276.248657 
	C160.307358,276.137024 160.592651,276.311096 160.945938,276.734192 
	C161.013931,276.983246 160.989868,277.022766 160.756195,277.053772 
	C160.522522,277.084778 160.076904,277.103455 160.076904,277.103455 
z"/>
<path fill="#4394B6" opacity="1.000000" stroke="none" 
	d="
M159.962021,275.748322 
	C159.782501,275.799774 159.540726,275.578003 159.158432,275.147644 
	C159.293213,275.138092 159.587158,275.316772 159.962021,275.748322 
z"/>
<path fill="#515FA6" opacity="1.000000" stroke="none" 
	d="
M120.992279,236.715057 
	C120.800903,236.780014 120.555397,236.562805 120.183510,236.122375 
	C120.324699,236.106567 120.618378,236.284485 120.992279,236.715057 
z"/>
<path fill="#4394B6" opacity="1.000000" stroke="none" 
	d="
M239.949020,244.653503 
	C239.710724,244.828018 239.378662,244.701828 238.859604,244.375885 
	C239.066833,244.235016 239.461029,244.293900 239.949020,244.653503 
z"/>
<path fill="#5B58A1" opacity="1.000000" stroke="none" 
	d="
M108.993118,224.719604 
	C108.802399,224.783051 108.554825,224.563461 108.178635,224.119568 
	C108.319542,224.104874 108.614960,224.285324 108.993118,224.719604 
z"/>
<path fill="#515FA6" opacity="1.000000" stroke="none" 
	d="
M126.002960,241.666656 
	C125.816788,241.742172 125.563843,241.539627 125.183411,241.111542 
	C125.319206,241.091171 125.612625,241.258713 126.002960,241.666656 
z"/>
<path fill="#515FA6" opacity="1.000000" stroke="none" 
	d="
M124.996048,240.714462 
	C124.804596,240.778336 124.558365,240.559296 124.183075,240.117889 
	C124.324501,240.102615 124.620255,240.281281 124.996048,240.714462 
z"/>
<path fill="#515FA6" opacity="1.000000" stroke="none" 
	d="
M123.995712,239.714600 
	C123.804131,239.778717 123.557961,239.559906 123.183075,239.118561 
	C123.324554,239.103165 123.620148,239.281693 123.995712,239.714600 
z"/>
<path fill="#515FA6" opacity="1.000000" stroke="none" 
	d="
M122.995026,238.714752 
	C122.803383,238.779160 122.557343,238.560745 122.183167,238.119583 
	C122.324669,238.104019 122.619865,238.282379 122.995026,238.714752 
z"/>
<path fill="#5B58A1" opacity="1.000000" stroke="none" 
	d="
M109.993912,225.719666 
	C109.803467,225.782700 109.555832,225.562820 109.179077,225.118896 
	C109.319885,225.104401 109.615471,225.285034 109.993912,225.719666 
z"/>
<path fill="#515FA6" opacity="1.000000" stroke="none" 
	d="
M121.993835,237.714905 
	C121.802284,237.779556 121.556473,237.561676 121.183319,237.120850 
	C121.324699,237.105148 121.619240,237.283295 121.993835,237.714905 
z"/>
<path fill="#5B58A1" opacity="1.000000" stroke="none" 
	d="
M110.995224,226.719574 
	C110.804672,226.782333 110.556931,226.561981 110.179344,226.117950 
	C110.320282,226.103546 110.616463,226.284271 110.995224,226.719574 
z"/>
<path fill="#4394B6" opacity="1.000000" stroke="none" 
	d="
M240.998993,245.696014 
	C240.765030,245.787048 240.481476,245.613647 240.118973,245.196243 
	C240.343155,245.112015 240.646286,245.271805 240.998993,245.696014 
z"/>
<path fill="#515FA6" opacity="1.000000" stroke="none" 
	d="
M119.990479,235.714966 
	C119.799286,235.780197 119.554161,235.563690 119.183578,235.123749 
	C119.324547,235.107849 119.617348,235.285477 119.990479,235.714966 
z"/>
<path fill="#515FA6" opacity="1.000000" stroke="none" 
	d="
M118.989174,234.714615 
	C118.797859,234.780182 118.553078,234.564163 118.183517,234.124664 
	C118.324486,234.108582 118.616806,234.285873 118.989174,234.714615 
z"/>
<path fill="#515FA6" opacity="1.000000" stroke="none" 
	d="
M117.988525,233.714264 
	C117.796921,233.780182 117.552376,233.564438 117.183418,233.125229 
	C117.324516,233.108948 117.616699,233.285919 117.988525,233.714264 
z"/>
<path fill="#5B58A1" opacity="1.000000" stroke="none" 
	d="
M111.996216,227.719406 
	C111.805565,227.781937 111.557724,227.561142 111.179337,227.117004 
	C111.320404,227.102661 111.617142,227.283478 111.996216,227.719406 
z"/>
<path fill="#4394B6" opacity="1.000000" stroke="none" 
	d="
M226.894531,231.834763 
	C226.577316,231.929733 226.367691,231.689957 226.129532,231.175262 
	C226.342712,231.151505 226.643097,231.351379 226.894531,231.834763 
z"/>
<path fill="#4394B6" opacity="1.000000" stroke="none" 
	d="
M225.998657,230.699371 
	C225.741135,230.836075 225.484161,230.639587 225.157959,230.162018 
	C225.339783,230.111267 225.643280,230.273026 225.998657,230.699371 
z"/>
<path fill="#4394B6" opacity="1.000000" stroke="none" 
	d="
M224.998856,229.698853 
	C224.740875,229.836182 224.483871,229.639999 224.158112,229.162323 
	C224.340210,229.111282 224.643707,229.272766 224.998856,229.698853 
z"/>
<path fill="#4394B6" opacity="1.000000" stroke="none" 
	d="
M223.998627,228.698578 
	C223.740631,228.836105 223.483734,228.640137 223.158234,228.162689 
	C223.340332,228.111557 223.643677,228.272842 223.998627,228.698578 
z"/>
<path fill="#5B58A1" opacity="1.000000" stroke="none" 
	d="
M113.010475,228.675903 
	C112.825493,228.749435 112.568649,228.543930 112.180862,228.111359 
	C112.316376,228.092377 112.612617,228.263229 113.010475,228.675903 
z"/>
<path fill="#4C66A9" opacity="1.000000" stroke="none" 
	d="
M134.990234,250.718048 
	C134.794708,250.787094 134.548065,250.570663 134.177917,250.127502 
	C134.321564,250.109665 134.616455,250.286926 134.990234,250.718048 
z"/>
<path fill="#4394B6" opacity="1.000000" stroke="none" 
	d="
M249.997009,254.694763 
	C249.735245,254.805252 249.426895,254.650955 249.079590,254.226868 
	C249.343887,254.114700 249.647171,254.272354 249.997009,254.694763 
z"/>
<path fill="#61529C" opacity="1.000000" stroke="none" 
	d="
M99.009247,214.674454 
	C98.826187,214.744873 98.570946,214.538239 98.183548,214.106964 
	C98.317863,214.089539 98.613091,214.261230 99.009247,214.674454 
z"/>
<path fill="#4C66A9" opacity="1.000000" stroke="none" 
	d="
M138.991196,254.719360 
	C138.798233,254.785706 138.550491,254.567642 138.177673,254.122437 
	C138.319748,254.106400 138.614334,254.286285 138.991196,254.719360 
z"/>
<path fill="#4394B6" opacity="1.000000" stroke="none" 
	d="
M248.996582,253.694550 
	C248.734497,253.805237 248.426132,253.651276 248.079376,253.227448 
	C248.344116,253.115005 248.647202,253.272446 248.996582,253.694550 
z"/>
<path fill="#4C66A9" opacity="1.000000" stroke="none" 
	d="
M137.991211,253.719223 
	C137.797791,253.786026 137.550125,253.568146 137.177521,253.123123 
	C137.319901,253.106796 137.614685,253.286301 137.991211,253.719223 
z"/>
<path fill="#4394B6" opacity="1.000000" stroke="none" 
	d="
M247.996338,252.694153 
	C247.733398,252.805435 247.424454,252.652206 247.078583,252.228516 
	C247.344559,252.115234 247.647461,252.272446 247.996338,252.694153 
z"/>
<path fill="#4394B6" opacity="1.000000" stroke="none" 
	d="
M209.992432,214.668854 
	C210.046234,214.919525 209.627365,215.019150 209.418854,215.066254 
	C209.178268,214.918671 209.146210,214.723984 209.094666,214.233963 
	C209.363007,214.098465 209.650818,214.258316 209.992432,214.668854 
z"/>
<path fill="#4C66A9" opacity="1.000000" stroke="none" 
	d="
M136.991333,252.719009 
	C136.797302,252.786438 136.549835,252.568939 136.177673,252.124481 
	C136.320419,252.107681 136.615387,252.286530 136.991333,252.719009 
z"/>
<path fill="#4C66A9" opacity="1.000000" stroke="none" 
	d="
M135.990936,251.718582 
	C135.796127,251.786835 135.549026,251.569824 135.177795,251.126007 
	C135.320999,251.108688 135.615997,251.286728 135.990936,251.718582 
z"/>
<path fill="#4394B6" opacity="1.000000" stroke="none" 
	d="
M222.998108,227.698547 
	C222.740494,227.835770 222.483810,227.639877 222.158356,227.162949 
	C222.340195,227.111923 222.643356,227.273102 222.998108,227.698547 
z"/>
<path fill="#4394B6" opacity="1.000000" stroke="none" 
	d="
M210.997299,215.700531 
	C210.760712,215.810623 210.512070,215.607086 210.169647,215.152405 
	C210.338516,215.112610 210.641632,215.274490 210.997299,215.700531 
z"/>
<path fill="#4C66A9" opacity="1.000000" stroke="none" 
	d="
M133.989304,249.717606 
	C133.793198,249.787277 133.546951,249.571304 133.177887,249.128632 
	C133.321854,249.110397 133.616562,249.287079 133.989304,249.717606 
z"/>
<path fill="#5B58A1" opacity="1.000000" stroke="none" 
	d="
M106.993134,222.719482 
	C106.801125,222.783997 106.553505,222.564560 106.177628,222.120453 
	C106.319328,222.105148 106.615379,222.285065 106.993134,222.719482 
z"/>
<path fill="#4C66A9" opacity="1.000000" stroke="none" 
	d="
M132.988556,248.717316 
	C132.792007,248.787552 132.546051,248.572021 132.177826,248.129700 
	C132.322052,248.111115 132.616577,248.287323 132.988556,248.717316 
z"/>
<path fill="#4394B6" opacity="1.000000" stroke="none" 
	d="
M243.000397,247.695938 
	C242.766495,247.786835 242.482742,247.612701 242.118958,247.194550 
	C242.342819,247.110657 242.646698,247.270782 243.000397,247.695938 
z"/>
<path fill="#4C66A9" opacity="1.000000" stroke="none" 
	d="
M131.987793,247.717133 
	C131.790894,247.787827 131.545181,247.572693 131.177750,247.130676 
	C131.322174,247.111801 131.616501,247.287628 131.987793,247.717133 
z"/>
<path fill="#4394B6" opacity="1.000000" stroke="none" 
	d="
M241.999588,246.696136 
	C241.765808,246.786972 241.482208,246.613113 241.118958,246.195312 
	C241.342789,246.111389 241.646286,246.271408 241.999588,246.696136 
z"/>
<path fill="#5B58A1" opacity="1.000000" stroke="none" 
	d="
M107.992920,223.719513 
	C107.801643,223.783463 107.554070,223.564011 107.178116,223.120071 
	C107.319359,223.105103 107.614983,223.285278 107.992920,223.719513 
z"/>
<path fill="#000000" opacity="1.000000" stroke="none" 
	d="
M211.618103,89.020798 
	C212.449631,89.267319 212.896866,89.558632 213.701050,90.202553 
	C214.368042,90.679794 214.678101,90.804420 214.988144,90.929047 
	C215.439590,91.236565 215.891037,91.544090 216.585648,91.986282 
	C219.630753,95.377617 222.432693,98.634285 225.602112,102.314880 
	C226.251984,103.191307 226.534393,103.643791 226.840698,104.454559 
	C227.205048,105.617523 227.545486,106.422203 227.923950,107.588211 
	C228.346313,109.290047 228.730652,110.630562 229.114990,111.971077 
	C229.627197,119.405457 228.526901,126.528381 224.970642,133.555374 
	C224.923981,133.924805 224.958969,133.956345 224.645782,134.070801 
	C223.506165,135.405090 222.679733,136.624908 221.853302,137.844727 
	C221.853302,137.844727 222.001053,137.990173 221.580078,137.948761 
	C220.719467,138.578064 220.279816,139.248779 219.840164,139.919510 
	C219.285187,140.405212 218.730194,140.890930 217.754181,141.676575 
	C216.853745,142.301270 216.374359,142.626007 215.894974,142.950745 
	C215.562668,143.007492 215.302368,143.175674 214.726440,143.722549 
	C213.866745,144.306747 213.394638,144.623688 212.922531,144.940613 
	C212.922531,144.940613 212.980621,144.971146 212.676422,144.979553 
	C211.895889,145.307632 211.419586,145.627289 210.943268,145.946945 
	C210.943268,145.946945 210.992233,145.990036 210.679657,145.998749 
	C209.886642,146.320923 209.406204,146.634369 208.925766,146.947815 
	C208.925766,146.947830 208.986557,146.972931 208.637589,146.975250 
	C207.486908,147.301331 206.685181,147.625076 205.883453,147.948822 
	C205.883453,147.948822 205.434921,148.041061 204.835800,148.048035 
	C202.813385,148.345795 201.390076,148.636597 199.966782,148.927383 
	C199.966782,148.927383 199.522812,148.983032 199.208221,148.754425 
	C198.577194,148.669754 198.260773,148.813675 197.944351,148.957596 
	C197.944351,148.957596 198.004944,148.985992 197.540573,148.991821 
	C194.035904,148.601578 190.995621,148.205521 187.937500,147.360596 
	C187.934982,128.520981 187.920181,110.130066 188.010925,91.739655 
	C188.020264,89.848129 188.660172,87.959709 189.007477,86.069855 
	C192.699814,86.033325 196.392151,85.996796 200.540894,85.894958 
	C204.409454,86.908295 207.821640,87.986938 211.618103,89.020798 
z"/>
<path fill="#5C559F" opacity="1.000000" stroke="none" 
	d="
M187.955322,147.809448 
	C190.995621,148.205521 194.035904,148.601578 197.514587,148.969635 
	C197.228638,150.150055 196.800522,151.838776 195.735886,152.495407 
	C177.359467,163.829163 158.868835,174.977661 140.485168,186.299805 
	C133.440048,190.638733 126.599945,195.310608 119.324898,199.447937 
	C118.989365,195.041367 118.995346,191.017639 119.338707,186.912628 
	C121.506340,185.695450 123.334862,184.556717 125.167137,183.424088 
	C142.142502,172.930481 159.054016,162.330765 176.150650,152.038605 
	C179.434738,150.061584 183.446838,149.293930 187.230042,148.006287 
	C187.554672,148.029282 187.760773,147.951019 187.955322,147.809448 
z"/>
<path fill="#7A579F" opacity="1.000000" stroke="none" 
	d="
M119.001335,186.993896 
	C118.995346,191.017639 118.989365,195.041367 118.990311,199.527069 
	C118.829948,200.482788 118.662643,200.976562 118.339600,201.678314 
	C118.159798,179.235611 118.135742,156.584961 118.162216,133.466736 
	C118.212753,132.999191 118.600159,132.995438 118.793587,132.988007 
	C118.987015,132.980591 118.996964,133.006409 118.998428,133.459442 
	C119.006798,143.268692 119.368668,143.617737 127.431213,138.749466 
	C142.741104,129.505188 157.853745,119.934799 173.119965,110.617271 
	C177.623215,107.868767 182.367218,105.514717 187.034882,103.438606 
	C187.055527,107.257614 187.042206,110.617897 186.676346,114.057465 
	C184.388336,115.086800 182.360275,115.886223 180.531784,117.010284 
	C162.817978,127.899773 145.384079,139.277695 127.314720,149.537766 
	C120.953476,153.149796 117.606148,156.755585 119.015594,164.457733 
	C119.011261,168.276886 119.010956,171.637970 119.006470,175.459702 
	C119.001961,179.611526 119.001648,183.302719 119.001335,186.993896 
z"/>
<path fill="#5C559F" opacity="1.000000" stroke="none" 
	d="
M200.241806,149.127991 
	C201.390076,148.636597 202.813385,148.345795 204.618774,148.120972 
	C203.506195,148.567505 202.011520,148.948044 200.241806,149.127991 
z"/>
<path fill="#61559D" opacity="1.000000" stroke="none" 
	d="
M222.201263,137.793488 
	C222.679733,136.624908 223.506165,135.405090 224.635651,134.052490 
	C224.142197,135.193909 223.345703,136.468079 222.201263,137.793488 
z"/>
<path fill="#61559D" opacity="1.000000" stroke="none" 
	d="
M220.142334,139.835800 
	C220.279816,139.248779 220.719467,138.578064 221.504837,137.878708 
	C221.381866,138.484085 220.913193,139.118088 220.142334,139.835800 
z"/>
<path fill="#61559D" opacity="1.000000" stroke="none" 
	d="
M206.221252,147.936417 
	C206.685181,147.625076 207.486908,147.301331 208.641113,146.942566 
	C208.182083,147.246368 207.370560,147.585190 206.221252,147.936417 
z"/>
<path fill="#61559D" opacity="1.000000" stroke="none" 
	d="
M211.229584,145.886414 
	C211.419586,145.627289 211.895889,145.307632 212.679764,144.946915 
	C212.496857,145.212540 212.006393,145.519226 211.229584,145.886414 
z"/>
<path fill="#61559D" opacity="1.000000" stroke="none" 
	d="
M213.207855,144.880341 
	C213.394638,144.623688 213.866745,144.306747 214.639038,143.943604 
	C214.457214,144.204941 213.975189,144.512497 213.207855,144.880341 
z"/>
<path fill="#61559D" opacity="1.000000" stroke="none" 
	d="
M209.212784,146.888733 
	C209.406204,146.634369 209.886642,146.320923 210.673950,145.966644 
	C210.487122,146.227097 209.993469,146.528366 209.212784,146.888733 
z"/>
<path fill="#61559D" opacity="1.000000" stroke="none" 
	d="
M216.184845,142.889084 
	C216.374359,142.626007 216.853745,142.301270 217.639832,141.930954 
	C217.455933,142.199387 216.965332,142.513412 216.184845,142.889084 
z"/>
<path fill="#5C559F" opacity="1.000000" stroke="none" 
	d="
M198.227127,148.965134 
	C198.260773,148.813675 198.577194,148.669754 198.984619,148.746689 
	C198.887054,148.969254 198.698486,148.970963 198.227127,148.965134 
z"/>
<path fill="#B35CA1" opacity="1.000000" stroke="none" 
	d="
M107.045181,85.310890 
	C98.629074,85.689682 90.268463,85.740349 81.487938,85.387459 
	C82.394524,83.630936 83.513695,81.942627 85.078522,80.975159 
	C109.751114,65.721107 134.498932,50.588642 159.147888,35.296741 
	C160.461121,34.482025 161.051346,32.501911 161.978165,31.064322 
	C170.333954,31.048552 178.689758,31.032780 187.511078,31.037783 
	C187.460251,36.897263 181.949860,37.859394 178.332352,40.124306 
	C155.447601,54.452366 132.294601,68.351746 109.264694,82.449066 
	C108.363899,83.000473 107.814049,84.125191 107.045181,85.310890 
z"/>
<path fill="#008FC9" opacity="1.000000" stroke="none" 
	d="
M262.968170,301.786499 
	C247.952759,301.808899 232.937363,301.831329 217.455780,301.796631 
	C216.661133,298.585876 217.965912,296.656189 220.784729,294.972687 
	C232.711578,287.849640 244.441711,280.397919 256.320953,273.193634 
	C258.089874,272.120850 260.270905,271.727661 262.653381,271.014648 
	C268.383484,276.340027 273.721497,281.670837 278.940613,287.634399 
	C276.145294,289.816650 273.148834,291.002563 270.872284,293.006348 
	C267.936188,295.590668 265.576263,298.829529 262.968170,301.786499 
z"/>
<path fill="#80569F" opacity="1.000000" stroke="none" 
	d="
M187.000900,102.979889 
	C182.367218,105.514717 177.623215,107.868767 173.119965,110.617271 
	C157.853745,119.934799 142.741104,129.505188 127.431213,138.749466 
	C119.368668,143.617737 119.006798,143.268692 119.003433,133.471558 
	C124.519203,130.118118 130.203766,127.487274 135.511353,124.240242 
	C151.461639,114.482292 167.260742,104.477325 183.135803,94.596031 
	C184.109055,93.990242 185.229599,93.621109 186.660797,93.518860 
	C187.026978,96.923866 187.013947,99.951881 187.000900,102.979889 
z"/>
<path fill="#C083B0" opacity="1.000000" stroke="none" 
	d="
M187.034882,103.438614 
	C187.013947,99.951881 187.026978,96.923866 187.006500,93.441345 
	C187.433929,90.784798 187.894882,88.582756 188.681641,86.225288 
	C188.660172,87.959709 188.020264,89.848129 188.010925,91.739655 
	C187.920181,110.130066 187.934982,128.520981 187.937500,147.360596 
	C187.760773,147.951019 187.554672,148.029282 187.272797,147.550461 
	C187.157242,143.363800 187.105896,139.670883 187.101639,135.527267 
	C187.109741,132.043457 187.070724,129.010361 187.073792,125.520340 
	C187.086868,121.368332 187.057877,117.673264 187.028885,113.978188 
	C187.042206,110.617897 187.055527,107.257614 187.034882,103.438614 
z"/>
<path fill="#6A549E" opacity="1.000000" stroke="none" 
	d="
M226.816788,104.096275 
	C226.534393,103.643791 226.251984,103.191307 225.920883,102.456635 
	C227.077225,100.196175 227.812408,97.498520 229.562836,96.355278 
	C241.789444,88.369843 254.372757,80.926109 266.522736,72.830017 
	C271.326019,69.629387 271.965088,74.253471 274.626801,75.927734 
	C275.239471,77.466187 275.546173,78.876259 275.924561,80.640366 
	C274.163300,81.664772 272.157898,82.052940 270.524872,83.050613 
	C258.544006,90.370094 246.570358,97.707039 234.768967,105.309425 
	C232.601151,106.705917 231.227768,109.335655 229.301331,111.683609 
	C228.730652,110.630562 228.346313,109.290047 227.927841,107.241814 
	C227.534714,105.721481 227.175751,104.908882 226.816788,104.096275 
z"/>
<path fill="#D163A3" opacity="1.000000" stroke="none" 
	d="
M98.265717,31.248611 
	C101.045326,31.054085 104.054047,31.045692 107.278717,31.272030 
	C104.871063,33.531403 102.401489,35.804516 99.599586,37.541553 
	C76.225464,52.032337 52.774464,66.399162 29.412012,80.908607 
	C27.999712,81.785728 27.145229,83.561020 25.611629,84.935608 
	C23.792027,84.948166 22.391985,84.943497 20.991943,84.938828 
	C21.907625,83.673683 22.551092,81.969238 23.779175,81.208237 
	C48.480370,65.901985 73.243202,50.695107 98.014168,35.501720 
	C100.041290,34.258373 101.608856,33.182201 98.265717,31.248611 
z"/>
<path fill="#C083B0" opacity="1.000000" stroke="none" 
	d="
M20.593456,84.955109 
	C22.391985,84.943497 23.792027,84.948166 25.628204,85.136177 
	C26.064341,85.319519 26.086559,85.719795 26.086559,85.719803 
	C22.038912,85.773651 17.991264,85.827499 13.485921,85.810013 
	C14.124074,85.486801 15.219924,85.234909 16.660175,84.961456 
	C18.068041,84.950394 19.131504,84.960892 20.593456,84.955109 
z"/>
<path fill="#D163A3" opacity="1.000000" stroke="none" 
	d="
M79.340965,31.244717 
	C80.735886,31.046272 82.425507,31.033836 84.536194,31.036797 
	C83.183388,31.178371 81.409531,31.304548 79.340965,31.244717 
z"/>
<path fill="#D163A3" opacity="1.000000" stroke="none" 
	d="
M88.316010,31.235310 
	C89.407410,31.042610 90.775009,31.033421 92.551781,31.039944 
	C91.504707,31.176710 90.048454,31.297764 88.316010,31.235310 
z"/>
<path fill="#207BB9" opacity="1.000000" stroke="none" 
	d="
M159.936035,277.405090 
	C160.076904,277.103455 160.522522,277.084778 160.745422,277.074219 
	C161.131393,277.334503 161.336624,277.568390 161.778595,277.896179 
	C162.133759,278.305145 162.337036,278.547363 162.778320,278.889984 
	C163.134567,279.304047 163.337875,279.546265 163.778763,279.889465 
	C164.135406,280.303314 164.338898,280.545349 164.779282,280.888885 
	C165.136429,281.302429 165.340134,281.544250 165.779861,281.888306 
	C166.137573,282.301422 166.341446,282.542938 166.780182,282.887726 
	C167.134827,283.299805 167.334717,283.541656 167.765198,283.889679 
	C168.240891,284.811493 168.525360,285.594574 168.955994,286.655212 
	C163.696564,289.995605 158.193909,292.904388 152.942841,296.212494 
	C151.305847,297.243805 150.349106,299.354858 149.047516,301.308075 
	C141.989609,301.692566 134.965149,301.740662 127.478149,301.719543 
	C128.341934,299.884369 129.319229,297.592255 131.053726,296.441620 
	C139.498611,290.839630 148.154037,285.555573 156.711884,280.122620 
	C157.808777,279.426208 158.770721,278.517212 159.936035,277.405090 
z"/>
<path fill="#80569F" opacity="1.000000" stroke="none" 
	d="
M214.814667,90.763351 
	C214.678101,90.804420 214.368042,90.679794 213.950409,90.312393 
	C214.128601,90.215874 214.394730,90.391884 214.814667,90.763351 
z"/>
<path fill="#CA5FA2" opacity="1.000000" stroke="none" 
	d="
M26.516062,85.762543 
	C26.086559,85.719795 26.064341,85.319519 26.047768,85.118958 
	C27.145229,83.561020 27.999712,81.785728 29.412012,80.908607 
	C52.774464,66.399162 76.225464,52.032337 99.599586,37.541553 
	C102.401489,35.804516 104.871063,33.531403 107.730240,31.284130 
	C115.010582,31.055876 122.055367,31.050249 129.864960,31.243885 
	C131.795044,31.611254 132.960327,31.779358 134.125595,31.947464 
	C135.154037,31.929834 136.182465,31.912205 137.523193,32.246399 
	C133.437317,35.962280 129.278458,39.710587 124.599762,42.624146 
	C103.876083,55.529400 82.978249,68.154854 62.236916,81.032135 
	C60.763363,81.946991 60.042870,84.074799 58.972214,85.638611 
	C53.289875,85.699684 47.607533,85.760757 41.122307,85.623398 
	C37.883305,85.527939 35.447186,85.630913 33.011066,85.733887 
	C30.989233,85.757698 28.967398,85.781494 26.516062,85.762543 
z"/>
<path fill="#BF5EA2" opacity="1.000000" stroke="none" 
	d="
M59.439240,85.708618 
	C60.042870,84.074799 60.763363,81.946991 62.236916,81.032135 
	C82.978249,68.154854 103.876083,55.529400 124.599762,42.624146 
	C129.278458,39.710587 133.437317,35.962280 137.908905,32.251343 
	C145.670441,31.611742 153.358566,31.319019 161.512421,31.045307 
	C161.051346,32.501911 160.461121,34.482025 159.147888,35.296741 
	C134.498932,50.588642 109.751114,65.721107 85.078522,80.975159 
	C83.513695,81.942627 82.394524,83.630936 81.022453,85.320404 
	C73.953339,85.697495 66.929802,85.738060 59.439240,85.708618 
z"/>
<path fill="#BF5EA2" opacity="1.000000" stroke="none" 
	d="
M133.822205,31.758858 
	C132.960327,31.779358 131.795044,31.611254 130.336075,31.254593 
	C131.201187,31.234108 132.360016,31.402180 133.822205,31.758858 
z"/>
<path fill="#0697CD" opacity="1.000000" stroke="none" 
	d="
M263.434082,301.864258 
	C265.576263,298.829529 267.936188,295.590668 270.872284,293.006348 
	C273.148834,291.002563 276.145294,289.816650 279.044434,287.951508 
	C284.089752,292.199799 288.912384,296.763794 293.932251,301.598999 
	C284.052979,301.894165 273.976471,301.918121 263.434082,301.864258 
z"/>
<path fill="#C083B0" opacity="1.000000" stroke="none" 
	d="
M33.449127,85.810097 
	C35.447186,85.630913 37.883305,85.527939 40.655205,85.586899 
	C38.623051,85.794662 36.255119,85.840485 33.449127,85.810097 
z"/>
<path fill="#71549E" opacity="1.000000" stroke="none" 
	d="
M226.840698,104.454559 
	C227.175751,104.908882 227.534714,105.721481 227.889801,106.880486 
	C227.545486,106.422203 227.205048,105.617523 226.840698,104.454559 
z"/>
<path fill="#61529C" opacity="1.000000" stroke="none" 
	d="
M187.054535,135.977982 
	C187.105896,139.670883 187.157242,143.363800 187.165833,147.512527 
	C183.446838,149.293930 179.434738,150.061584 176.150650,152.038605 
	C159.054016,162.330765 142.142502,172.930481 125.167137,183.424088 
	C123.334862,184.556717 121.506340,185.695450 119.338707,186.912628 
	C119.001648,183.302719 119.001961,179.611526 119.391922,175.451401 
	C121.499954,174.444992 123.426170,174.240982 124.905121,173.319305 
	C142.940582,162.079681 160.881516,150.688263 178.930710,139.470963 
	C181.406158,137.932526 184.335388,137.124283 187.054535,135.977982 
z"/>
<path fill="#6A549E" opacity="1.000000" stroke="none" 
	d="
M187.101639,135.527267 
	C184.335388,137.124283 181.406158,137.932526 178.930710,139.470963 
	C160.881516,150.688263 142.940582,162.079681 124.905121,173.319305 
	C123.426170,174.240982 121.499954,174.444992 119.396111,174.990753 
	C119.010956,171.637970 119.011261,168.276886 119.386353,164.429260 
	C122.620651,162.663498 125.662643,161.681458 128.309586,160.056061 
	C143.728088,150.588043 158.983978,140.853607 174.459946,131.481888 
	C178.339142,129.132782 182.824799,127.785156 187.031723,125.977264 
	C187.070724,129.010361 187.109741,132.043457 187.101639,135.527267 
z"/>
<path fill="#71549E" opacity="1.000000" stroke="none" 
	d="
M187.073792,125.520340 
	C182.824799,127.785156 178.339142,129.132782 174.459946,131.481888 
	C158.983978,140.853607 143.728088,150.588043 128.309586,160.056061 
	C125.662643,161.681458 122.620651,162.663498 119.390396,163.971191 
	C117.606148,156.755585 120.953476,153.149796 127.314720,149.537766 
	C145.384079,139.277695 162.817978,127.899773 180.531784,117.010284 
	C182.360275,115.886223 184.388336,115.086800 186.676346,114.057465 
	C187.057877,117.673264 187.086868,121.368332 187.073792,125.520340 
z"/>
</svg>